<svg version="1.1" id="Layer_1" xmlns="http://www.w3.org/2000/svg" xmlns:xlink="http://www.w3.org/1999/xlink" x="0px" y="0px"
	 width="100%" viewBox="0 0 1200 1200" enable-background="new 0 0 1200 1200" xml:space="preserve">
<path fill="#000000" opacity="1.000000" stroke="none" 
	d="
M1201.000000,444.000000 
	C1201.000000,696.666687 1201.000000,948.833313 1201.000000,1201.000000 
	C801.000000,1201.000000 401.000000,1201.000000 1.000000,1201.000000 
	C1.000000,801.000000 1.000000,401.000000 1.000000,1.000000 
	C401.000000,1.000000 801.000000,1.000000 1201.000000,1.000000 
	C1201.000000,148.500000 1201.000000,296.000000 1201.000000,444.000000 
M109.504929,935.030762 
	C111.306129,937.561768 113.012962,940.166565 114.923523,942.612122 
	C129.133240,960.800720 142.736420,979.517761 157.825165,996.947754 
	C169.945526,1010.948730 183.339722,1023.982849 197.149734,1036.350586 
	C214.013489,1051.453125 231.635513,1065.749146 249.413895,1079.780273 
	C273.193665,1098.547974 299.143280,1114.117432 326.074921,1127.813354 
	C345.971680,1137.931763 366.424316,1147.123901 387.180573,1155.335205 
	C405.449738,1162.562744 424.299957,1168.507568 443.223694,1173.849365 
	C469.919342,1181.385132 496.999847,1187.409424 524.714417,1190.068237 
	C540.891724,1191.620117 557.028259,1194.404907 573.225037,1194.768677 
	C602.536987,1195.427002 631.926392,1196.046021 661.124878,1192.011108 
	C675.545715,1190.018066 689.993652,1188.202759 704.382324,1186.000244 
	C729.707703,1182.123169 754.448242,1175.701904 778.862610,1168.041382 
	C814.577820,1156.834839 849.127380,1142.779175 881.851624,1124.520996 
	C896.663513,1116.256836 911.366760,1107.746948 925.692261,1098.674316 
	C947.146179,1085.086914 967.261841,1069.657471 986.540771,1053.088989 
	C1004.132507,1037.970337 1021.459534,1022.599060 1036.505249,1004.901489 
	C1051.177856,987.642639 1065.802734,970.321960 1079.825439,952.537109 
	C1098.580811,928.750061 1114.154297,902.805115 1127.830688,875.861938 
	C1137.934937,855.956238 1147.156372,835.517578 1155.366455,814.760681 
	C1162.592285,796.492004 1168.508545,777.633118 1173.854248,758.710266 
	C1181.395874,732.014954 1187.425659,704.936157 1190.074585,677.219116 
	C1191.620728,661.041443 1194.511963,644.897095 1194.731934,628.709778 
	C1195.076172,603.355164 1194.358765,577.933838 1192.777832,552.622864 
	C1191.626831,534.195129 1189.383667,515.695618 1185.783691,497.594788 
	C1180.837402,472.724030 1174.856812,447.999725 1167.961060,423.596497 
	C1163.240356,406.890594 1156.326050,390.793060 1150.177612,374.504669 
	C1140.111816,347.838898 1127.236694,322.446136 1112.349365,298.263245 
	C1099.362305,277.166992 1085.038696,256.815887 1070.199585,236.962280 
	C1058.512207,221.325729 1045.490479,206.632172 1032.392822,192.123520 
	C1023.846252,182.656296 1014.481018,173.830933 1004.812195,165.495514 
	C987.782837,150.814453 970.456543,136.456909 952.860474,122.459251 
	C929.138367,103.588287 903.121643,88.115364 876.266235,74.293098 
	C856.279541,64.006073 835.616516,54.858002 814.703064,46.599480 
	C796.430786,39.383904 777.561951,33.507652 758.645142,28.137003 
	C731.955261,20.559513 704.865356,14.585793 677.152100,11.924485 
	C660.809937,10.355150 644.497192,7.494520 628.142700,7.267055 
	C602.955200,6.916737 577.699890,7.641065 552.555969,9.222347 
	C534.128174,10.381260 515.627808,12.617424 497.528198,16.222769 
	C472.660065,21.176369 447.827423,26.839058 423.565033,34.142769 
	C402.272858,40.552353 381.388428,48.745090 361.054871,57.792950 
	C339.608582,67.335960 318.367798,77.721764 298.250061,89.765312 
	C277.009613,102.480980 256.710541,116.937439 236.918533,131.852020 
	C220.533905,144.198898 204.862671,157.666748 190.021866,171.838577 
	C175.440262,185.762939 161.704498,200.694946 148.697144,216.112457 
	C135.103119,232.225357 122.247368,249.042648 110.142365,266.304779 
	C100.237335,280.429657 91.106888,295.238190 83.072258,310.501221 
	C71.070030,333.301331 59.597706,356.446899 49.305916,380.058289 
	C42.047546,396.710510 36.541935,414.205933 31.323029,431.644836 
	C26.476370,447.839905 22.459284,464.341980 19.155613,480.923798 
	C15.743050,498.052124 13.252844,515.391724 11.063987,532.727905 
	C9.191296,547.559998 7.327602,562.511169 7.224240,577.421936 
	C7.056512,601.617798 8.001960,625.839111 9.128580,650.019287 
	C9.746556,663.282654 11.019833,676.597473 13.212768,689.685486 
	C16.198965,707.508057 20.037476,725.206421 24.057627,742.833313 
	C33.112293,782.534851 47.321541,820.463501 64.704323,857.207520 
	C77.434135,884.116028 92.385147,909.793823 109.504929,935.030762 
z"/>
<path fill="#FF0000" opacity="1.000000" stroke="none" 
	d="
M109.251617,934.764465 
	C92.385147,909.793823 77.434135,884.116028 64.704323,857.207520 
	C47.321541,820.463501 33.112293,782.534851 24.057627,742.833313 
	C20.037476,725.206421 16.198965,707.508057 13.212768,689.685486 
	C11.019833,676.597473 9.746556,663.282654 9.128580,650.019287 
	C8.001960,625.839111 7.056512,601.617798 7.224240,577.421936 
	C7.327602,562.511169 9.191296,547.559998 11.063987,532.727905 
	C13.252844,515.391724 15.743050,498.052124 19.155613,480.923798 
	C22.459284,464.341980 26.476370,447.839905 31.323029,431.644836 
	C36.541935,414.205933 42.047546,396.710510 49.305916,380.058289 
	C59.597706,356.446899 71.070030,333.301331 83.072258,310.501221 
	C91.106888,295.238190 100.237335,280.429657 110.142365,266.304779 
	C122.247368,249.042648 135.103119,232.225357 148.697144,216.112457 
	C161.704498,200.694946 175.440262,185.762939 190.021866,171.838577 
	C204.862671,157.666748 220.533905,144.198898 236.918533,131.852020 
	C256.710541,116.937439 277.009613,102.480980 298.250061,89.765312 
	C318.367798,77.721764 339.608582,67.335960 361.054871,57.792950 
	C381.388428,48.745090 402.272858,40.552353 423.565033,34.142769 
	C447.827423,26.839058 472.660065,21.176369 497.528198,16.222769 
	C515.627808,12.617424 534.128174,10.381260 552.555969,9.222347 
	C577.699890,7.641065 602.955200,6.916737 628.142700,7.267055 
	C644.497192,7.494520 660.809937,10.355150 677.152100,11.924485 
	C704.865356,14.585793 731.955261,20.559513 758.645142,28.137003 
	C777.561951,33.507652 796.430786,39.383904 814.703064,46.599480 
	C835.616516,54.858002 856.279541,64.006073 876.266235,74.293098 
	C903.121643,88.115364 929.138367,103.588287 952.860474,122.459251 
	C970.456543,136.456909 987.782837,150.814453 1004.812195,165.495514 
	C1014.481018,173.830933 1023.846252,182.656296 1032.392822,192.123520 
	C1045.490479,206.632172 1058.512207,221.325729 1070.199585,236.962280 
	C1085.038696,256.815887 1099.362305,277.166992 1112.349365,298.263245 
	C1127.236694,322.446136 1140.111816,347.838898 1150.177612,374.504669 
	C1156.326050,390.793060 1163.240356,406.890594 1167.961060,423.596497 
	C1174.856812,447.999725 1180.837402,472.724030 1185.783691,497.594788 
	C1189.383667,515.695618 1191.626831,534.195129 1192.777832,552.622864 
	C1194.358765,577.933838 1195.076172,603.355164 1194.731934,628.709778 
	C1194.511963,644.897095 1191.620728,661.041443 1190.074585,677.219116 
	C1187.425659,704.936157 1181.395874,732.014954 1173.854248,758.710266 
	C1168.508545,777.633118 1162.592285,796.492004 1155.366455,814.760681 
	C1147.156372,835.517578 1137.934937,855.956238 1127.830688,875.861938 
	C1114.154297,902.805115 1098.580811,928.750061 1079.825439,952.537109 
	C1065.802734,970.321960 1051.177856,987.642639 1036.505249,1004.901489 
	C1021.459534,1022.599060 1004.132507,1037.970337 986.540771,1053.088989 
	C967.261841,1069.657471 947.146179,1085.086914 925.692261,1098.674316 
	C911.366760,1107.746948 896.663513,1116.256836 881.851624,1124.520996 
	C849.127380,1142.779175 814.577820,1156.834839 778.862610,1168.041382 
	C754.448242,1175.701904 729.707703,1182.123169 704.382324,1186.000244 
	C689.993652,1188.202759 675.545715,1190.018066 661.124878,1192.011108 
	C631.926392,1196.046021 602.536987,1195.427002 573.225037,1194.768677 
	C557.028259,1194.404907 540.891724,1191.620117 524.714417,1190.068237 
	C496.999847,1187.409424 469.919342,1181.385132 443.223694,1173.849365 
	C424.299957,1168.507568 405.449738,1162.562744 387.180573,1155.335205 
	C366.424316,1147.123901 345.971680,1137.931763 326.074921,1127.813354 
	C299.143280,1114.117432 273.193665,1098.547974 249.413895,1079.780273 
	C231.635513,1065.749146 214.013489,1051.453125 197.149734,1036.350586 
	C183.339722,1023.982849 169.945526,1010.948730 157.825165,996.947754 
	C142.736420,979.517761 129.133240,960.800720 114.923523,942.612122 
	C113.012962,940.166565 111.306129,937.561768 109.251617,934.764465 
M365.697144,141.483826 
	C365.304962,140.956863 364.912781,140.429916 363.961761,139.152145 
	C364.098846,140.780762 364.151245,141.403442 364.084076,142.953369 
	C364.074707,210.613525 364.058136,278.273682 364.057251,345.933838 
	C364.054047,594.576233 364.066559,843.218567 363.963684,1091.860962 
	C363.962006,1095.925659 365.017090,1098.212158 368.893188,1099.681885 
	C392.530457,1108.644653 415.781891,1118.772705 439.800293,1126.537720 
	C460.869751,1133.349121 482.698975,1137.915405 504.347778,1142.783447 
	C514.385742,1145.040649 524.774048,1145.820435 535.036438,1146.978394 
	C548.271057,1148.471680 561.532532,1150.696045 574.793457,1150.775757 
	C598.684387,1150.919556 622.631531,1150.419556 646.463684,1148.823242 
	C664.651245,1147.605103 682.803650,1144.887939 700.784668,1141.761963 
	C737.238892,1135.424316 772.543152,1124.843750 806.859131,1110.994507 
	C808.965942,1110.144409 811.044067,1109.223145 813.416016,1108.215942 
	C812.560547,1106.248535 811.940857,1104.738403 811.255371,1103.259033 
	C682.589294,825.572388 553.921692,547.886536 425.244476,270.205078 
	C405.441040,227.469879 385.592133,184.755783 365.697144,141.483826 
M847.496155,1070.820679 
	C847.494995,752.548889 847.493835,434.277130 847.492554,116.005356 
	C847.492554,115.172180 847.394165,114.325447 847.508179,113.508255 
	C847.942139,110.397293 846.511353,108.773064 843.729187,107.409225 
	C799.605408,85.779419 753.456970,70.102509 705.163208,61.129837 
	C686.134094,57.594341 666.855225,55.199055 647.596741,53.170364 
	C633.619934,51.698051 619.495300,51.454300 605.425598,51.108910 
	C597.827942,50.922398 590.205444,51.634243 582.597473,52.008720 
	C569.542297,52.651321 556.397278,52.599297 543.458374,54.200134 
	C525.153503,56.464863 506.963715,59.752762 488.792877,62.986435 
	C457.080322,68.629982 426.635071,78.649933 396.710144,90.361565 
	C395.358765,90.890457 394.089355,91.628784 392.593384,92.361870 
	C393.601807,94.655037 394.432373,96.635368 395.334564,98.582535 
	C536.999939,404.330475 678.664917,710.078552 820.354065,1015.815491 
	C829.092285,1034.670654 838.022339,1053.437012 846.906677,1072.664673 
	C847.149231,1072.733887 847.391785,1072.803101 847.634277,1072.872314 
	C847.587585,1072.481079 847.540955,1072.089966 847.496155,1070.820679 
M101.788216,370.290802 
	C100.544846,373.016174 99.296860,375.739441 98.058823,378.467255 
	C82.667061,412.380157 71.728699,447.816315 63.273529,483.965546 
	C59.379158,500.615509 57.350597,517.737976 55.125988,534.731323 
	C53.260834,548.978943 51.550690,563.330566 51.196201,577.671326 
	C50.732677,596.423462 51.387077,615.221130 52.107170,633.978210 
	C52.587414,646.487671 53.329502,659.064758 55.193581,671.424744 
	C57.833912,688.931702 60.890911,706.440735 65.024353,723.647461 
	C100.967461,873.271851 184.434219,988.813721 314.718506,1070.597656 
	C315.921814,1071.353027 317.257843,1071.896973 318.793793,1072.671753 
	C318.793793,758.038940 318.793793,443.885559 318.793793,129.574844 
	C243.389343,172.308060 155.049500,254.657822 101.788216,370.290802 
M1014.310913,238.196625 
	C979.006775,197.957840 938.694031,163.663727 893.023926,134.996582 
	C893.023926,445.976807 893.023926,756.061829 893.023926,1066.229858 
	C893.870972,1066.115845 894.238525,1066.163574 894.492737,1066.015869 
	C895.786804,1065.264282 897.066162,1064.484741 898.324524,1063.674438 
	C944.745667,1033.783325 985.879517,997.847595 1021.389465,955.561035 
	C1082.669922,882.586121 1122.549927,799.279724 1140.772095,705.773621 
	C1144.243652,687.959106 1146.051147,669.783447 1147.896240,651.699951 
	C1149.470337,636.272705 1150.277344,620.749207 1150.869995,605.247070 
	C1151.185791,596.984680 1150.545654,588.661743 1149.954102,580.393555 
	C1148.790405,564.131897 1147.912476,547.820190 1145.888916,531.657837 
	C1143.729736,514.412598 1141.234131,497.124268 1137.414551,480.186462 
	C1116.940552,389.395660 1075.888062,308.938812 1014.310913,238.196625 
z"/>
<path fill="#FFF900" opacity="1.000000" stroke="none" 
	d="
M846.863098,1072.244629 
	C838.022339,1053.437012 829.092285,1034.670654 820.354065,1015.815491 
	C678.664917,710.078552 536.999939,404.330475 395.334564,98.582535 
	C394.432373,96.635368 393.601807,94.655037 392.593384,92.361870 
	C394.089355,91.628784 395.358765,90.890457 396.710144,90.361565 
	C426.635071,78.649933 457.080322,68.629982 488.792877,62.986435 
	C506.963715,59.752762 525.153503,56.464863 543.458374,54.200134 
	C556.397278,52.599297 569.542297,52.651321 582.597473,52.008720 
	C590.205444,51.634243 597.827942,50.922398 605.425598,51.108910 
	C619.495300,51.454300 633.619934,51.698051 647.596741,53.170364 
	C666.855225,55.199055 686.134094,57.594341 705.163208,61.129837 
	C753.456970,70.102509 799.605408,85.779419 843.729187,107.409225 
	C846.511353,108.773064 847.942139,110.397293 847.508179,113.508255 
	C847.394165,114.325447 847.492554,115.172180 847.492554,116.005356 
	C847.493835,434.277130 847.494995,752.548889 847.282593,1071.332764 
	C847.069092,1071.844971 846.863098,1072.244629 846.863098,1072.244629 
z"/>
<path fill="#FFF900" opacity="1.000000" stroke="none" 
	d="
M365.764282,142.031921 
	C385.592133,184.755783 405.441040,227.469879 425.244476,270.205078 
	C553.921692,547.886536 682.589294,825.572388 811.255371,1103.259033 
	C811.940857,1104.738403 812.560547,1106.248535 813.416016,1108.215942 
	C811.044067,1109.223145 808.965942,1110.144409 806.859131,1110.994507 
	C772.543152,1124.843750 737.238892,1135.424316 700.784668,1141.761963 
	C682.803650,1144.887939 664.651245,1147.605103 646.463684,1148.823242 
	C622.631531,1150.419556 598.684387,1150.919556 574.793457,1150.775757 
	C561.532532,1150.696045 548.271057,1148.471680 535.036438,1146.978394 
	C524.774048,1145.820435 514.385742,1145.040649 504.347778,1142.783447 
	C482.698975,1137.915405 460.869751,1133.349121 439.800293,1126.537720 
	C415.781891,1118.772705 392.530457,1108.644653 368.893188,1099.681885 
	C365.017090,1098.212158 363.962006,1095.925659 363.963684,1091.860962 
	C364.066559,843.218567 364.054047,594.576233 364.057251,345.933838 
	C364.058136,278.273682 364.074707,210.613525 364.403870,142.502533 
	C365.070496,142.045120 365.417389,142.038528 365.764282,142.031921 
z"/>
<path fill="#000000" opacity="1.000000" stroke="none" 
	d="
M101.929321,369.942078 
	C155.049500,254.657822 243.389343,172.308060 318.793793,129.574844 
	C318.793793,443.885559 318.793793,758.038940 318.793793,1072.671753 
	C317.257843,1071.896973 315.921814,1071.353027 314.718506,1070.597656 
	C184.434219,988.813721 100.967461,873.271851 65.024353,723.647461 
	C60.890911,706.440735 57.833912,688.931702 55.193581,671.424744 
	C53.329502,659.064758 52.587414,646.487671 52.107170,633.978210 
	C51.387077,615.221130 50.732677,596.423462 51.196201,577.671326 
	C51.550690,563.330566 53.260834,548.978943 55.125988,534.731323 
	C57.350597,517.737976 59.379158,500.615509 63.273529,483.965546 
	C71.728699,447.816315 82.667061,412.380157 98.058823,378.467255 
	C99.296860,375.739441 100.544846,373.016174 101.929321,369.942078 
z"/>
<path fill="#000000" opacity="1.000000" stroke="none" 
	d="
M1014.550903,238.457916 
	C1075.888062,308.938812 1116.940552,389.395660 1137.414551,480.186462 
	C1141.234131,497.124268 1143.729736,514.412598 1145.888916,531.657837 
	C1147.912476,547.820190 1148.790405,564.131897 1149.954102,580.393555 
	C1150.545654,588.661743 1151.185791,596.984680 1150.869995,605.247070 
	C1150.277344,620.749207 1149.470337,636.272705 1147.896240,651.699951 
	C1146.051147,669.783447 1144.243652,687.959106 1140.772095,705.773621 
	C1122.549927,799.279724 1082.669922,882.586121 1021.389465,955.561035 
	C985.879517,997.847595 944.745667,1033.783325 898.324524,1063.674438 
	C897.066162,1064.484741 895.786804,1065.264282 894.492737,1066.015869 
	C894.238525,1066.163574 893.870972,1066.115845 893.023926,1066.229858 
	C893.023926,756.061829 893.023926,445.976807 893.023926,134.996582 
	C938.694031,163.663727 979.006775,197.957840 1014.550903,238.457916 
z"/>
<path fill="#FFE000" opacity="1.000000" stroke="none" 
	d="
M365.730713,141.757874 
	C365.417389,142.038528 365.070496,142.045120 364.463654,142.038910 
	C364.151245,141.403442 364.098846,140.780762 363.961761,139.152145 
	C364.912781,140.429916 365.304962,140.956863 365.730713,141.757874 
z"/>
<path fill="#FF7C00" opacity="1.000000" stroke="none" 
	d="
M846.884888,1072.454590 
	C846.863098,1072.244629 847.069092,1071.844971 847.281677,1071.771851 
	C847.540955,1072.089966 847.587585,1072.481079 847.634277,1072.872314 
	C847.391785,1072.803101 847.149231,1072.733887 846.884888,1072.454590 
z"/>
</svg>