<svg version="1.1" id="Layer_1" xmlns="http://www.w3.org/2000/svg" xmlns:xlink="http://www.w3.org/1999/xlink" x="0px" y="0px"
	 width="100%" viewBox="0 0 500 500" enable-background="new 0 0 500 500" xml:space="preserve">
<path fill="#000000" opacity="1.000000" stroke="none" 
	d="
M321.000000,501.000000 
	C214.000031,501.000000 107.500053,501.000000 1.000057,501.000000 
	C1.000038,334.333405 1.000038,167.666794 1.000019,1.000147 
	C167.666565,1.000098 334.333130,1.000098 500.999756,1.000049 
	C500.999847,167.666519 500.999847,334.333038 500.999939,500.999786 
	C441.166656,501.000000 381.333344,501.000000 321.000000,501.000000 
M322.261414,238.499863 
	C322.261414,250.499390 322.896179,262.543854 322.050873,274.483551 
	C321.428680,283.271820 323.131409,289.214752 332.617981,290.869141 
	C333.251556,290.979675 333.822357,291.421814 334.436707,291.674805 
	C343.113068,295.248077 351.791840,298.815369 360.642334,302.454956 
	C360.793762,301.360352 360.919617,300.875092 360.919617,300.389801 
	C360.920135,266.891327 361.283936,233.387222 360.777161,199.896301 
	C360.408600,175.539322 352.271088,153.445786 336.860382,134.595078 
	C314.622437,107.393135 285.573212,93.497887 250.346939,93.285141 
	C215.349670,93.073776 180.350128,93.239258 145.351578,93.255325 
	C144.066025,93.255913 142.780518,93.423897 141.303177,93.527298 
	C141.303177,132.756409 141.303177,171.698105 141.303177,210.880463 
	C153.949799,216.148239 166.630539,221.430237 179.803177,226.917130 
	C179.803177,219.196213 179.876404,212.078827 179.786789,204.963470 
	C179.635254,192.932236 182.321136,181.661453 187.637360,170.815506 
	C204.880783,135.636200 250.979263,121.157402 284.960663,140.629639 
	C309.561707,154.726639 321.894928,176.186127 322.233643,204.501480 
	C322.365173,215.499466 322.259186,226.500305 322.261414,238.499863 
M180.008331,305.148376 
	C179.936691,291.819366 179.937164,278.489105 179.702026,265.162994 
	C179.672714,263.501312 178.822815,260.883240 177.630920,260.363007 
	C165.657516,255.136948 153.533066,250.256943 141.092453,245.131775 
	C141.092453,262.111725 141.148056,278.594818 141.081131,295.077423 
	C140.931351,331.962616 154.437485,362.577179 183.587158,385.496338 
	C208.383118,404.992401 236.938599,412.347687 267.997528,407.487579 
	C298.238770,402.755402 322.610962,387.514099 340.598389,362.586792 
	C346.788513,354.008362 351.885132,344.776184 354.790619,334.386749 
	C342.818939,329.387726 331.211609,324.540833 319.614685,319.698303 
	C317.425140,324.422546 315.661102,329.104645 313.170197,333.361420 
	C310.585205,337.779022 307.556183,342.001465 304.273499,345.935608 
	C283.715118,370.574066 244.945633,377.386353 217.054398,361.468933 
	C195.473404,349.152771 183.343628,330.577240 180.008331,305.148376 
z"/>
<path fill="#FDFDFD" opacity="1.000000" stroke="none" 
	d="
M322.261414,237.999847 
	C322.259186,226.500305 322.365173,215.499466 322.233643,204.501480 
	C321.894928,176.186127 309.561707,154.726639 284.960663,140.629639 
	C250.979263,121.157402 204.880783,135.636200 187.637360,170.815506 
	C182.321136,181.661453 179.635254,192.932236 179.786789,204.963470 
	C179.876404,212.078827 179.803177,219.196213 179.803177,226.917130 
	C166.630539,221.430237 153.949799,216.148239 141.303177,210.880463 
	C141.303177,171.698105 141.303177,132.756409 141.303177,93.527298 
	C142.780518,93.423897 144.066025,93.255913 145.351578,93.255325 
	C180.350128,93.239258 215.349670,93.073776 250.346939,93.285141 
	C285.573212,93.497887 314.622437,107.393135 336.860382,134.595078 
	C352.271088,153.445786 360.408600,175.539322 360.777161,199.896301 
	C361.283936,233.387222 360.920135,266.891327 360.919617,300.389801 
	C360.919617,300.875092 360.793762,301.360352 360.642334,302.454956 
	C351.791840,298.815369 343.113068,295.248077 334.436707,291.674805 
	C333.822357,291.421814 333.251556,290.979675 332.617981,290.869141 
	C323.131409,289.214752 321.428680,283.271820 322.050873,274.483551 
	C322.896179,262.543854 322.261414,250.499390 322.261414,237.999847 
z"/>
<path fill="#FDFDFD" opacity="1.000000" stroke="none" 
	d="
M180.031616,305.609436 
	C183.343628,330.577240 195.473404,349.152771 217.054398,361.468933 
	C244.945633,377.386353 283.715118,370.574066 304.273499,345.935608 
	C307.556183,342.001465 310.585205,337.779022 313.170197,333.361420 
	C315.661102,329.104645 317.425140,324.422546 319.614685,319.698303 
	C331.211609,324.540833 342.818939,329.387726 354.790619,334.386749 
	C351.885132,344.776184 346.788513,354.008362 340.598389,362.586792 
	C322.610962,387.514099 298.238770,402.755402 267.997528,407.487579 
	C236.938599,412.347687 208.383118,404.992401 183.587158,385.496338 
	C154.437485,362.577179 140.931351,331.962616 141.081131,295.077423 
	C141.148056,278.594818 141.092453,262.111725 141.092453,245.131775 
	C153.533066,250.256943 165.657516,255.136948 177.630920,260.363007 
	C178.822815,260.883240 179.672714,263.501312 179.702026,265.162994 
	C179.937164,278.489105 179.936691,291.819366 180.031616,305.609436 
z"/>
</svg>