<svg version="1.1" id="Layer_1" xmlns="http://www.w3.org/2000/svg" xmlns:xlink="http://www.w3.org/1999/xlink" x="0px" y="0px"
	 width="100%" viewBox="0 0 512 512" enable-background="new 0 0 512 512" xml:space="preserve">
<path fill="#001834" opacity="1.000000" stroke="none" 
	d="
M1.000000,435.000000 
	C1.000000,316.644653 1.000000,198.289307 1.325801,79.326843 
	C2.288972,77.407692 3.176799,76.158615 3.524827,74.773872 
	C6.871868,61.456684 13.086972,49.721455 22.030180,39.265541 
	C39.842358,18.440502 62.474613,7.215680 89.686699,7.135758 
	C200.468689,6.810396 311.252197,6.986238 422.035126,7.047061 
	C427.002869,7.049788 432.067810,7.231786 436.922211,8.178164 
	C474.437408,15.491816 499.239075,37.087437 510.268341,74.009384 
	C510.799164,75.786354 512.072449,77.341537 513.000000,79.000000 
	C513.000000,197.355347 513.000000,315.710693 512.674255,434.673218 
	C511.710907,436.592377 510.836456,437.842102 510.472504,439.226044 
	C506.990082,452.469147 500.936279,464.278564 491.978455,474.736053 
	C474.020844,495.699890 451.229248,506.813568 423.820282,506.883301 
	C313.204529,507.164734 202.587616,507.011932 91.971161,506.957886 
	C87.335327,506.955627 82.661224,506.611237 78.070251,505.963440 
	C42.257381,500.910004 13.144119,474.967316 3.725396,439.990356 
	C3.246319,438.211273 1.927717,436.658264 1.000000,435.000000 
M250.775620,51.125546 
	C243.865234,52.619415 238.287460,56.289410 233.326691,61.256458 
	C176.087555,118.568115 118.785660,175.817093 61.530491,233.112732 
	C46.727879,247.925781 46.709549,265.995758 61.446598,280.741516 
	C118.822914,338.151733 176.213089,395.548126 233.623077,452.924652 
	C247.906784,467.200043 266.116577,467.166901 280.500366,452.797211 
	C337.921692,395.432007 395.320007,338.043793 452.688934,280.626221 
	C467.204926,266.097931 467.215820,247.852737 452.699371,233.323425 
	C395.331451,175.904831 337.889282,118.560425 280.546448,61.116821 
	C272.431793,52.987896 263.020630,49.290779 250.775620,51.125546 
z"/>
<path fill="#000000" opacity="1.000000" stroke="none" 
	d="
M1.000000,435.468658 
	C1.927717,436.658264 3.246319,438.211273 3.725396,439.990356 
	C13.144119,474.967316 42.257381,500.910004 78.070251,505.963440 
	C82.661224,506.611237 87.335327,506.955627 91.971161,506.957886 
	C202.587616,507.011932 313.204529,507.164734 423.820282,506.883301 
	C451.229248,506.813568 474.020844,495.699890 491.978455,474.736053 
	C500.936279,464.278564 506.990082,452.469147 510.472504,439.226044 
	C510.836456,437.842102 511.710907,436.592377 512.674255,435.140198 
	C513.000000,460.982941 513.000000,486.965912 513.000000,512.946167 
	C342.333313,512.943481 171.666656,512.943481 1.000000,512.943481 
	C1.000000,487.237122 1.000000,461.587219 1.000000,435.468658 
z"/>
<path fill="#000000" opacity="1.000000" stroke="none" 
	d="
M513.000000,78.531342 
	C512.072449,77.341537 510.799164,75.786354 510.268341,74.009384 
	C499.239075,37.087437 474.437408,15.491816 436.922211,8.178164 
	C432.067810,7.231786 427.002869,7.049788 422.035126,7.047061 
	C311.252197,6.986238 200.468689,6.810396 89.686699,7.135758 
	C62.474613,7.215680 39.842358,18.440502 22.030180,39.265541 
	C13.086972,49.721455 6.871868,61.456684 3.524827,74.773872 
	C3.176799,76.158615 2.288972,77.407692 1.325801,78.859856 
	C1.000000,53.017025 1.000000,27.034054 1.000003,1.053864 
	C171.666672,1.056648 342.333344,1.056648 513.000000,1.056648 
	C513.000000,26.763092 513.000000,52.412888 513.000000,78.531342 
z"/>
<path fill="#006CAF" opacity="1.000000" stroke="none" 
	d="
M251.184464,51.063538 
	C263.020630,49.290779 272.431793,52.987896 280.546448,61.116821 
	C337.889282,118.560425 395.331451,175.904831 452.699371,233.323425 
	C467.215820,247.852737 467.204926,266.097931 452.688934,280.626221 
	C395.320007,338.043793 337.921692,395.432007 280.500366,452.797211 
	C266.116577,467.166901 247.906784,467.200043 233.623077,452.924652 
	C176.213089,395.548126 118.822914,338.151733 61.446598,280.741516 
	C46.709549,265.995758 46.727879,247.925781 61.530491,233.112732 
	C118.785660,175.817093 176.087555,118.568115 233.326691,61.256458 
	C238.287460,56.289410 243.865234,52.619415 251.184464,51.063538 
M59.418716,260.786682 
	C61.763512,265.107056 63.254593,270.275970 66.580040,273.621582 
	C124.386467,331.778839 182.395126,389.735260 240.423248,447.671783 
	C250.076355,457.309662 263.434448,457.524384 273.011841,447.971680 
	C331.305023,389.828918 389.518768,331.606384 447.672913,273.324524 
	C457.272736,263.703674 457.205170,250.379074 447.581787,240.737106 
	C389.537811,182.580780 331.440430,124.477608 273.283691,66.434029 
	C263.476044,56.645435 250.191391,56.716129 240.323212,66.566299 
	C182.287949,124.495682 124.330933,182.503433 66.348923,240.486160 
	C60.961563,245.873550 58.437222,252.308502 59.418716,260.786682 
z"/>
<path fill="#001835" opacity="1.000000" stroke="none" 
	d="
M59.341343,260.373169 
	C58.437222,252.308502 60.961563,245.873550 66.348923,240.486160 
	C124.330933,182.503433 182.287949,124.495682 240.323212,66.566299 
	C250.191391,56.716129 263.476044,56.645435 273.283691,66.434029 
	C331.440430,124.477608 389.537811,182.580780 447.581787,240.737106 
	C457.205170,250.379074 457.272736,263.703674 447.672913,273.324524 
	C389.518768,331.606384 331.305023,389.828918 273.011841,447.971680 
	C263.434448,457.524384 250.076355,457.309662 240.423248,447.671783 
	C182.395126,389.735260 124.386467,331.778839 66.580040,273.621582 
	C63.254593,270.275970 61.763512,265.107056 59.341343,260.373169 
M232.913284,279.499298 
	C269.543427,269.320648 284.318939,224.454788 260.686707,194.846481 
	C249.248291,180.515503 233.258255,174.953079 215.814667,174.166306 
	C198.199722,173.371765 180.511017,174.322067 162.856110,174.228790 
	C158.324310,174.204865 156.973572,175.567856 156.989517,180.198517 
	C157.158875,229.349960 157.092331,278.502228 157.105484,327.654266 
	C157.105911,329.273499 157.263229,330.892670 157.374695,333.036469 
	C167.666153,333.036469 177.614273,333.134033 187.552307,332.862457 
	C188.402985,332.839233 189.847687,330.383698 189.891144,329.022156 
	C190.124878,321.698456 190.002823,314.363373 190.003098,307.032227 
	C190.003387,299.082672 190.003159,291.133118 190.003159,284.341064 
	C204.514511,282.764252 218.325668,281.263519 232.913284,279.499298 
M310.787689,215.191223 
	C309.432495,215.825958 308.046783,216.403152 306.726654,217.103958 
	C282.647339,229.887070 280.814819,262.035919 303.571381,277.026093 
	C309.897949,281.193512 317.111176,284.029419 323.969330,287.369995 
	C328.443268,289.549225 333.069672,291.419006 337.516479,293.649231 
	C340.850464,295.321320 343.141571,297.971130 342.539825,302.007843 
	C341.959717,305.899567 338.968536,307.345825 335.533264,308.147339 
	C325.833923,310.410431 316.278656,309.022736 306.945923,306.414703 
	C300.637177,304.651703 294.600281,301.915710 287.880035,299.405090 
	C287.880035,308.726959 287.767578,317.833038 288.017670,326.929199 
	C288.050140,328.110046 289.734741,329.828796 291.021606,330.304901 
	C312.369598,338.202850 333.946045,339.843323 355.128754,330.312805 
	C367.213409,324.875732 374.045380,314.800720 375.023224,301.339447 
	C376.066650,286.975250 370.098572,276.067108 357.704224,268.959076 
	C351.673401,265.500427 345.188324,262.827148 338.876556,259.867218 
	C334.367188,257.752563 329.687347,255.971252 325.302643,253.630737 
	C321.924713,251.827637 318.415161,249.512115 319.274933,244.843491 
	C320.111481,240.300934 323.893066,239.132294 327.845245,238.496475 
	C328.992432,238.311920 330.152466,238.143967 331.311249,238.104416 
	C342.270935,237.730179 352.853394,239.450623 362.963470,243.821182 
	C364.409027,244.446106 365.941925,244.869064 368.097626,245.614990 
	C368.322327,243.297836 368.594543,241.714981 368.608490,240.129868 
	C368.661255,234.135239 368.343933,228.121613 368.724579,222.150772 
	C369.009918,217.674622 367.330872,215.267136 363.111176,214.293579 
	C345.857056,210.312714 328.636841,208.612061 310.787689,215.191223 
z"/>
<path fill="#00A8FE" opacity="1.000000" stroke="none" 
	d="
M232.525055,279.631042 
	C218.325668,281.263519 204.514511,282.764252 190.003159,284.341064 
	C190.003159,291.133118 190.003387,299.082672 190.003098,307.032227 
	C190.002823,314.363373 190.124878,321.698456 189.891144,329.022156 
	C189.847687,330.383698 188.402985,332.839233 187.552307,332.862457 
	C177.614273,333.134033 167.666153,333.036469 157.374695,333.036469 
	C157.263229,330.892670 157.105911,329.273499 157.105484,327.654266 
	C157.092331,278.502228 157.158875,229.349960 156.989517,180.198517 
	C156.973572,175.567856 158.324310,174.204865 162.856110,174.228790 
	C180.511017,174.322067 198.199722,173.371765 215.814667,174.166306 
	C233.258255,174.953079 249.248291,180.515503 260.686707,194.846481 
	C284.318939,224.454788 269.543427,269.320648 232.525055,279.631042 
M210.662521,254.179916 
	C215.754074,252.749832 221.118286,251.920822 225.878998,249.761353 
	C235.073044,245.590927 238.826614,237.705475 238.472351,227.843414 
	C238.113037,217.841675 233.853500,210.243744 224.269760,206.294632 
	C213.227753,201.744629 201.771591,203.242554 190.225464,203.676514 
	C190.225464,220.746765 190.225464,237.350143 190.225464,254.271378 
	C196.886475,254.271378 203.329819,254.271378 210.662521,254.179916 
z"/>
<path fill="#00A8FD" opacity="1.000000" stroke="none" 
	d="
M311.151337,215.067688 
	C328.636841,208.612061 345.857056,210.312714 363.111176,214.293579 
	C367.330872,215.267136 369.009918,217.674622 368.724579,222.150772 
	C368.343933,228.121613 368.661255,234.135239 368.608490,240.129868 
	C368.594543,241.714981 368.322327,243.297836 368.097626,245.614990 
	C365.941925,244.869064 364.409027,244.446106 362.963470,243.821182 
	C352.853394,239.450623 342.270935,237.730179 331.311249,238.104416 
	C330.152466,238.143967 328.992432,238.311920 327.845245,238.496475 
	C323.893066,239.132294 320.111481,240.300934 319.274933,244.843491 
	C318.415161,249.512115 321.924713,251.827637 325.302643,253.630737 
	C329.687347,255.971252 334.367188,257.752563 338.876556,259.867218 
	C345.188324,262.827148 351.673401,265.500427 357.704224,268.959076 
	C370.098572,276.067108 376.066650,286.975250 375.023224,301.339447 
	C374.045380,314.800720 367.213409,324.875732 355.128754,330.312805 
	C333.946045,339.843323 312.369598,338.202850 291.021606,330.304901 
	C289.734741,329.828796 288.050140,328.110046 288.017670,326.929199 
	C287.767578,317.833038 287.880035,308.726959 287.880035,299.405090 
	C294.600281,301.915710 300.637177,304.651703 306.945923,306.414703 
	C316.278656,309.022736 325.833923,310.410431 335.533264,308.147339 
	C338.968536,307.345825 341.959717,305.899567 342.539825,302.007843 
	C343.141571,297.971130 340.850464,295.321320 337.516479,293.649231 
	C333.069672,291.419006 328.443268,289.549225 323.969330,287.369995 
	C317.111176,284.029419 309.897949,281.193512 303.571381,277.026093 
	C280.814819,262.035919 282.647339,229.887070 306.726654,217.103958 
	C308.046783,216.403152 309.432495,215.825958 311.151337,215.067688 
z"/>
<path fill="#001A36" opacity="1.000000" stroke="none" 
	d="
M210.217834,254.225647 
	C203.329819,254.271378 196.886475,254.271378 190.225464,254.271378 
	C190.225464,237.350143 190.225464,220.746765 190.225464,203.676514 
	C201.771591,203.242554 213.227753,201.744629 224.269760,206.294632 
	C233.853500,210.243744 238.113037,217.841675 238.472351,227.843414 
	C238.826614,237.705475 235.073044,245.590927 225.878998,249.761353 
	C221.118286,251.920822 215.754074,252.749832 210.217834,254.225647 
z"/>
</svg>