<svg version="1.1" id="Layer_1" xmlns="http://www.w3.org/2000/svg" xmlns:xlink="http://www.w3.org/1999/xlink" x="0px" y="0px"
	 width="100%" viewBox="0 0 2048 2048" enable-background="new 0 0 2048 2048" xml:space="preserve">
<path fill="#000000" opacity="1.000000" stroke="none" 
	d="
M1156.000000,2049.000000 
	C770.666687,2049.000000 385.833344,2049.000000 1.000000,2049.000000 
	C1.000000,1366.333374 1.000000,683.666687 1.000000,1.000000 
	C683.666687,1.000000 1366.333374,1.000000 2049.000000,1.000000 
	C2049.000000,683.666687 2049.000000,1366.333374 2049.000000,2049.000000 
	C1751.500000,2049.000000 1454.000000,2049.000000 1156.000000,2049.000000 
M816.532471,1227.056885 
	C825.111694,1215.633667 833.683777,1204.205078 842.271362,1192.788208 
	C882.988892,1138.655884 923.676147,1084.500610 964.500916,1030.449341 
	C967.553284,1026.407959 967.493652,1023.466187 964.446106,1019.480164 
	C949.701233,1000.194519 935.215515,980.710938 920.622803,961.308899 
	C891.917664,923.143799 863.203003,884.985840 834.491394,846.825562 
	C806.781189,809.996338 779.063904,773.172485 751.360291,736.338379 
	C710.726196,682.312256 670.086426,628.290283 629.522827,574.211243 
	C627.739441,571.833679 625.912781,570.926453 622.930054,570.931580 
	C568.596985,571.024353 514.263611,570.997192 459.930328,571.010986 
	C458.555511,571.011353 457.180756,571.186584 455.304779,571.314331 
	C456.329803,572.689941 456.913727,573.479858 457.504089,574.264954 
	C500.014832,630.796448 542.525024,687.328430 585.037598,743.858521 
	C654.091736,835.681458 723.123962,927.520874 792.278625,1019.268066 
	C795.421997,1023.438416 795.549072,1026.395020 792.357239,1030.629883 
	C720.719666,1125.676880 649.210693,1220.820679 577.670593,1315.941162 
	C540.039307,1365.976196 502.393921,1416.000610 464.758331,1466.032471 
	C461.707916,1470.087646 458.684631,1474.163330 455.196564,1478.835205 
	C456.605835,1478.923706 457.203461,1478.994019 457.801086,1478.994019 
	C513.134399,1478.999634 568.467773,1479.036377 623.800537,1478.851929 
	C625.775696,1478.845337 628.332031,1477.096069 629.624634,1475.401489 
	C643.943726,1456.630249 658.052612,1437.698975 672.244568,1418.830566 
	C720.187134,1355.090088 768.140320,1291.357788 816.532471,1227.056885 
M1595.000000,1436.500000 
	C1595.000000,1413.404297 1595.000000,1390.308472 1595.000000,1367.285156 
	C1424.023438,1367.285156 1253.623169,1367.285156 1083.288086,1367.285156 
	C1083.288086,1404.642090 1083.288086,1441.713135 1083.288086,1478.714844 
	C1253.976562,1478.714844 1424.376831,1478.714844 1595.000000,1478.714844 
	C1595.000000,1464.787109 1595.000000,1451.143555 1595.000000,1436.500000 
z"/>
<path fill="#FFFFFF" opacity="1.000000" stroke="none" 
	d="
M816.310974,1227.339600 
	C768.140320,1291.357788 720.187134,1355.090088 672.244568,1418.830566 
	C658.052612,1437.698975 643.943726,1456.630249 629.624634,1475.401489 
	C628.332031,1477.096069 625.775696,1478.845337 623.800537,1478.851929 
	C568.467773,1479.036377 513.134399,1478.999634 457.801086,1478.994019 
	C457.203461,1478.994019 456.605835,1478.923706 455.196564,1478.835205 
	C458.684631,1474.163330 461.707916,1470.087646 464.758331,1466.032471 
	C502.393921,1416.000610 540.039307,1365.976196 577.670593,1315.941162 
	C649.210693,1220.820679 720.719666,1125.676880 792.357239,1030.629883 
	C795.549072,1026.395020 795.421997,1023.438416 792.278625,1019.268066 
	C723.123962,927.520874 654.091736,835.681458 585.037598,743.858521 
	C542.525024,687.328430 500.014832,630.796448 457.504089,574.264954 
	C456.913727,573.479858 456.329803,572.689941 455.304779,571.314331 
	C457.180756,571.186584 458.555511,571.011353 459.930328,571.010986 
	C514.263611,570.997192 568.596985,571.024353 622.930054,570.931580 
	C625.912781,570.926453 627.739441,571.833679 629.522827,574.211243 
	C670.086426,628.290283 710.726196,682.312256 751.360291,736.338379 
	C779.063904,773.172485 806.781189,809.996338 834.491394,846.825562 
	C863.203003,884.985840 891.917664,923.143799 920.622803,961.308899 
	C935.215515,980.710938 949.701233,1000.194519 964.446106,1019.480164 
	C967.493652,1023.466187 967.553284,1026.407959 964.500916,1030.449341 
	C923.676147,1084.500610 882.988892,1138.655884 842.271362,1192.788208 
	C833.683777,1204.205078 825.111694,1215.633667 816.310974,1227.339600 
z"/>
<path fill="#FFFFFF" opacity="1.000000" stroke="none" 
	d="
M1595.000000,1437.000000 
	C1595.000000,1451.143555 1595.000000,1464.787109 1595.000000,1478.714844 
	C1424.376831,1478.714844 1253.976562,1478.714844 1083.288086,1478.714844 
	C1083.288086,1441.713135 1083.288086,1404.642090 1083.288086,1367.285156 
	C1253.623169,1367.285156 1424.023438,1367.285156 1595.000000,1367.285156 
	C1595.000000,1390.308472 1595.000000,1413.404297 1595.000000,1437.000000 
z"/>
</svg>