<svg xmlns="http://www.w3.org/2000/svg" style="display: none;">
	<symbol id="website-icon" viewBox="0 0 1200 1200">
		<path d="m599.438 5.688 4.103.005C624.819 5.733 645.87 6.38 667 9l4.32.52C693.105 12.184 714.61 16.098 736 21l1.975.453C814.573 39.137 887.728 73.517 951 120l1.867 1.364c10.696 7.834 21 16.089 31.133 24.636l1.933 1.628c13.806 11.679 26.88 24.116 39.692 36.872l2.224 2.21a234.08 234.08 0 0 1 11.583 12.477c2.096 2.423 4.269 4.772 6.443 7.125a296.576 296.576 0 0 1 11.648 13.618 725.277 725.277 0 0 0 5.579 6.828c6.533 7.924 12.747 15.973 18.61 24.404a536.35 536.35 0 0 0 4.151 5.822c30.745 42.789 55.284 90.494 73.137 140.016l.7 1.936c14.883 41.282 24.961 83.926 30.55 127.439l.459 3.556c2.78 23.13 3.669 46.223 3.603 69.506l-.005 4.104c-.04 21.278-.687 42.33-3.307 63.459l-.52 4.32c-2.664 21.785-6.578 43.29-11.48 64.68l-.453 1.975C1160.863 814.573 1126.483 887.728 1080 951l-1.364 1.867c-7.834 10.696-16.089 21-24.636 31.133l-1.628 1.933c-11.679 13.806-24.116 26.88-36.872 39.692l-2.21 2.224a234.08 234.08 0 0 1-12.477 11.583c-2.423 2.096-4.772 4.269-7.125 6.443a296.576 296.576 0 0 1-13.618 11.648 725.277 725.277 0 0 0-6.828 5.579c-7.924 6.533-15.973 12.747-24.404 18.61a536.35 536.35 0 0 0-5.822 4.151C900.227 1116.608 852.522 1141.147 803 1159l-1.936.7c-41.282 14.883-83.926 24.961-127.439 30.55l-3.556.459c-23.13 2.78-46.223 3.669-69.506 3.603l-4.104-.005c-21.278-.04-42.33-.687-63.459-3.307l-4.32-.52c-21.785-2.664-43.29-6.578-64.68-11.48l-1.975-.453C385.427 1160.863 312.272 1126.483 249 1080l-1.867-1.364c-10.696-7.834-21-16.089-31.133-24.636l-1.933-1.628c-13.806-11.679-26.88-24.116-39.692-36.872l-2.224-2.21a234.08 234.08 0 0 1-11.583-12.477c-2.096-2.423-4.269-4.772-6.443-7.125a296.576 296.576 0 0 1-11.648-13.618 725.277 725.277 0 0 0-5.579-6.828c-6.533-7.924-12.747-15.973-18.61-24.404a536.35 536.35 0 0 0-4.151-5.822C83.392 900.227 58.853 852.522 41 803l-.7-1.936C25.417 759.782 15.34 717.138 9.75 673.625l-.459-3.556c-2.78-23.13-3.669-46.223-3.604-69.506l.006-4.104C5.733 575.181 6.38 554.13 9 533l.52-4.32C12.184 506.895 16.098 485.39 21 464l.453-1.975C39.137 385.427 73.517 312.272 120 249l1.364-1.867c7.834-10.696 16.089-21 24.636-31.133l1.628-1.933c11.679-13.806 24.116-26.88 36.872-39.692l2.21-2.224a234.08 234.08 0 0 1 12.477-11.583c2.423-2.096 4.772-4.269 7.125-6.443a296.576 296.576 0 0 1 13.618-11.648 725.277 725.277 0 0 0 6.828-5.579c7.924-6.533 15.973-12.747 24.404-18.61a536.35 536.35 0 0 0 5.822-4.151C299.773 83.392 347.478 58.853 397 41l1.936-.7c41.282-14.883 83.926-24.961 127.439-30.55l3.556-.459c23.13-2.78 46.223-3.669 69.506-3.604Z" fill="#ff0000"/>
		<path d="M592.064 49.87c3.4.005 6.801 0 10.202-.007 20.658-.008 41.092.723 61.609 3.2l2.672.317c19.386 2.332 38.453 5.976 57.51 10.19 1.705.377 3.41.747 5.116 1.117 29.777 6.515 59.416 17.46 87.39 29.375l3.348 1.426c8.897 3.857 17.38 8.157 26.089 12.512v963c-2.094-2.792-3.484-4.737-4.878-7.773l-1.027-2.216-1.087-2.386-1.158-2.51c-1.246-2.703-2.486-5.41-3.725-8.115l-2.59-5.624c-1.722-3.737-3.442-7.475-5.16-11.213a4953.848 4953.848 0 0 0-9.25-19.976l-3.105-6.687a41614.62 41614.62 0 0 0-6.07-13.063 15292.278 15292.278 0 0 1-18.575-40.125 30976.606 30976.606 0 0 0-25.984-56.155c-3.57-7.698-7.137-15.397-10.705-23.097l-5.936-12.81a7845225.204 7845225.204 0 0 1-3.562-7.688L454.625 228.875l-1.187-2.562a5932046.06 5932046.06 0 0 1-27.724-59.83c-3.428-7.4-6.858-14.799-10.304-22.19-2.6-5.58-5.192-11.162-7.773-16.75-1.184-2.563-2.37-5.123-3.56-7.683a2415.471 2415.471 0 0 1-4.984-10.816 930.674 930.674 0 0 0-1.931-4.175 802.229 802.229 0 0 1-2.654-5.78l-1.543-3.347C392 93 392 93 393 90c2.056-1.116 2.056-1.116 4.8-2.164l3.107-1.198 3.406-1.263 3.536-1.33C455.933 66.2 505.073 56.03 556 51l3.437-.348c10.853-.94 21.742-.803 32.627-.782ZM363 138c2.873 3.831 4.815 7.6 6.781 11.918l1.108 2.4c1.208 2.622 2.41 5.246 3.611 7.87l2.557 5.55c1.772 3.846 3.542 7.693 5.31 11.54a7735.747 7735.747 0 0 0 10.962 23.697 502560.351 502560.351 0 0 0 8.296 17.9l137.75 297.25a474989612.478 474989612.478 0 0 1 26.5 57.188l1.216 2.623a30488.83 30488.83 0 0 0 14.471 31.189 12889.69 12889.69 0 0 1 15.063 32.563 30981.687 30981.687 0 0 0 25.984 56.155c3.57 7.698 7.137 15.397 10.705 23.097l5.936 12.81 2.375 5.125 1.188 2.563 118.75 256.25a656712.401 656712.401 0 0 0 8.305 17.924 39085.06 39085.06 0 0 0 11.987 25.849c4.335 9.338 8.66 18.68 12.982 28.025 1.182 2.555 2.366 5.109 3.55 7.662a5421.02 5421.02 0 0 1 5.726 12.397c.71 1.54 1.423 3.08 2.137 4.619.978 2.107 1.949 4.217 2.918 6.328l1.665 3.605C812 1105 812 1105 812 1108a3562.704 3562.704 0 0 1-27.181 10.317c-1.614.606-3.226 1.217-4.838 1.828-38.272 14.43-79.306 22.635-119.856 27.293l-2.045.236c-20.248 2.29-40.598 2.564-60.955 2.576l-3.523.003c-17.186-.01-34.02-.561-51.077-2.795-3.738-.486-7.48-.914-11.224-1.337-58.78-6.843-114.584-24.704-168.301-49.121V138Z" fill="#fff900"/>
		<path d="M318 128v944c-7.295-3.98-14.214-7.936-21.063-12.563l-2.728-1.833c-21.771-14.71-42.309-30.68-61.732-48.374a168.152 168.152 0 0 0-4.05-3.558c-6.54-5.563-12.553-11.647-18.609-17.724a2552.994 2552.994 0 0 0-5.64-5.634C198.239 976.38 192.403 970.434 187 964a1542.54 1542.54 0 0 0-2.922-3.352c-58.442-67.462-100.51-149.635-131.746-304.86-.26-2.973-.544-5.94-.838-8.91-1.51-15.826-1.853-31.549-1.806-47.44l.004-3.86c.038-17.849.461-35.4 2.846-53.107.414-3.11.788-6.223 1.145-9.34 1.772-15.497 4.111-30.773 7.599-45.982.78-3.422 1.528-6.852 2.277-10.282C79.246 406.11 109.987 337.423 153 279l1.551-2.109c11.355-15.382 23.297-30.25 36.183-44.38a167.214 167.214 0 0 0 3.598-4.088c5.561-6.538 11.644-12.55 17.72-18.605 1.881-1.876 3.758-3.758 5.634-5.64 5.934-5.939 11.88-11.775 18.314-17.178a1542.54 1542.54 0 0 0 3.352-2.922C304.085 128 304.085 128 318 128ZM892 135c6.752 2.25 6.752 2.25 9.453 4.145l1.848 1.28 1.949 1.387 2.085 1.461c2.229 1.567 4.447 3.146 6.665 4.727l2.272 1.61c17.953 12.741 34.974 26.333 51.251 41.16 1.336 1.202 2.677 2.399 4.05 3.558 6.54 5.563 12.553 11.647 18.609 17.724 1.876 1.881 3.758 3.758 5.64 5.634 5.939 5.934 11.775 11.88 17.178 18.314a1542.54 1542.54 0 0 0 2.922 3.352C1077.542 310.483 1118.967 396.049 1149 556l.321 3.13c1.122 12.873.921 25.833.929 38.745l.004 3.925c-.004 18.466-.5 36.573-2.844 54.899-.41 3.296-.748 6.592-1.066 9.899-3.738 37.717-13.116 74.608-25.344 110.402l-1.133 3.343A527.664 527.664 0 0 1 1075 878l-1.711 2.915c-18.264 30.964-39.794 60.007-64.023 86.573a167.214 167.214 0 0 0-3.598 4.09c-5.561 6.537-11.644 12.55-17.72 18.604a2552.994 2552.994 0 0 0-5.634 5.64c-5.934 5.939-11.88 11.775-18.314 17.178a1542.54 1542.54 0 0 0-3.352 2.922c-17.463 15.128-35.912 29-55.086 41.89l-2.709 1.834-2.537 1.686-2.236 1.491C896 1064 896 1064 892 1065V135Z"/>
	</symbol>
	
	<symbol id="html-icon" viewBox="0 0 108.35 122.88">
		<style type="text/css">
			.html-icon0 {
				fill-rule: evenodd;
				clip-rule: evenodd;
				fill: #E44D26;
			}

			.html-icon1 {
				fill-rule: evenodd;
				clip-rule: evenodd;
				fill: #F16529;
			}

			.html-icon2 {
				fill-rule: evenodd;
				clip-rule: evenodd;
				fill: #EBEBEB;
			}

			.html-icon3 {
				fill-rule: evenodd;
				clip-rule: evenodd;
				fill: #FFF;
			}
		</style>
		<g>
			<polygon class="html-icon0" points="108.35,0 98.48,110.58 54.11,122.88 9.86,110.6 0,0 108.35,0" />
			<polygon class="html-icon1" points="54.17,113.48 90.03,103.54 98.46,9.04 54.17,9.04 54.17,113.48" />
			<path class="html-icon2" d="M34.99,36.17h19.19V22.61H20.16l0.32,3.64l3.33,37.38h30.35V50.06H36.23L34.99,36.17L34.99,36.17L34.99,36.17z M38.04,70.41H24.43l1.9,21.3l27.79,7.71l0.06-0.02V85.29l-0.06,0.02l-15.11-4.08L38.04,70.41L38.04,70.41L38.04,70.41z" />
			<path class="html-icon3" d="M54.13,63.63h16.7l-1.57,17.59L54.13,85.3v14.11l27.81-7.71l0.2-2.29l3.19-35.71l0.33-3.64H54.13V63.63 L54.13,63.63z M54.13,36.14v0.03h32.76l0.27-3.05l0.62-6.88l0.32-3.64H54.13V36.14L54.13,36.14L54.13,36.14z" />
		</g>
	</symbol>

	<symbol id="css-icon" viewBox="0 0 296297 333333" xmlns:xlink="http://www.w3.org/1999/xlink">
		<defs>
			<linearGradient id="id4" gradientUnits="userSpaceOnUse" x1="54128.7" y1="79355.5" x2="240318" y2="79355.5">
				<stop offset="0" stop-color="#e8e7e5" />
				<stop offset="1" stop-color="#fff" />
			</linearGradient>
			<linearGradient id="id5" gradientUnits="userSpaceOnUse" x1="62019.3" y1="202868" x2="233515" y2="202868">
				<stop offset="0" stop-color="#e8e7e5" />
				<stop offset="1" stop-color="#fff" />
			</linearGradient>
			<linearGradient id="id6" gradientUnits="userSpaceOnUse" x1="104963" y1="99616.9" x2="104963" y2="171021">
				<stop offset="0" stop-color="#d1d3d4" />
				<stop offset=".388" stop-color="#d1d3d4" />
				<stop offset="1" stop-color="#d1d3d4" />
			</linearGradient>
			<linearGradient id="id7" gradientUnits="userSpaceOnUse" xlink:href="#id6" x1="194179" y1="61185.8" x2="194179" y2="135407" />
			<mask id="id0">
				<linearGradient id="id1" gradientUnits="userSpaceOnUse" x1="104963" y1="99616.9" x2="104963" y2="171021">
					<stop offset="0" stop-opacity="0" stop-color="#fff" />
					<stop offset=".388" stop-color="#fff" />
					<stop offset="1" stop-opacity=".831" stop-color="#fff" />
				</linearGradient><path fill="url(#id1)" d="M61737 99467h86453v71704H61737z" />
			</mask>
			<mask id="id2">
				<linearGradient id="id3" gradientUnits="userSpaceOnUse" x1="194179" y1="61185.8" x2="194179" y2="135407">
					<stop offset="0" stop-opacity="0" stop-color="#fff" />
					<stop offset=".388" stop-color="#fff" />
					<stop offset="1" stop-opacity=".831" stop-color="#fff" />
				</linearGradient>
				<path fill="url(#id3)" d="M147890 61036h92578v74521h-92578z" />
			</mask>
			<style>
				.fil6 {
				fill: #000;
				fill-opacity: .05098;
				}
			</style>
		</defs>
		<g id="Layer_x0020_1">
			<g id="_513085304">
				<path fill="#2062af" d="M268517 300922l-120369 32411-120371-32411L0 0h296297z" />
				<path fill="#3c9cd7" d="M148146 24374v283109l273 74 97409-26229 22485-256954z" />
				<path fill="#fff" d="M148040 99617l-86153 35880 2857 35524 83296-35614 88604-37883 3674-36339-92278 38432z" />
				<path mask="url(#id0)" fill="url(#id6)" d="M61887 135497l2857 35524 83295-35614V99617z" />
				<path mask="url(#id2)" fill="url(#id7)" d="M240318 61186l-92278 38431v35790l88604-37883z" />
				<path fill="url(#id5)" d="M62019 135497l2858 35524 127806 407-2859 47365-42055 11840-40428-10208-2450-29399H67327l4900 56756 75950 22457 75538-22050 9800-112692z" />
				<path class="fil6" d="M148040 135497H61888l2857 35524 83295 266v-35790zm0 95022l-408 114-40422-10208-2450-29399H67197l4899 56756 75944 22457v-39720z" />
				<path fill="url(#id4)" d="M54129 61186h186189l-3674 36339H58620l-4491-36339z" />
				<path class="fil6" d="M148040 61186H54129l4491 36339h89420z" />
			</g>
		</g>
	</symbol>

	<symbol id="javascript-icon" viewBox="0 0 256 256">
		<path d="M0 0h256v256H0V0z" fill="#f7df1e" /><path d="M67.312 213.932l19.59-11.856c3.78 6.701 7.218 12.371 15.465 12.371 7.905 0 12.89-3.092 12.89-15.12v-81.798h24.057v82.138c0 24.917-14.606 36.259-35.916 36.259-19.245 0-30.416-9.967-36.087-21.996M152.381 211.354l19.588-11.341c5.157 8.421 11.859 14.607 23.715 14.607 9.969 0 16.325-4.984 16.325-11.858 0-8.248-6.53-11.17-17.528-15.98l-6.013-2.58c-17.357-7.387-28.87-16.667-28.87-36.257 0-18.044 13.747-31.792 35.228-31.792 15.294 0 26.292 5.328 34.196 19.247L210.29 147.43c-4.125-7.389-8.591-10.31-15.465-10.31-7.046 0-11.514 4.468-11.514 10.31 0 7.217 4.468 10.14 14.778 14.608l6.014 2.577c20.45 8.765 31.963 17.7 31.963 37.804 0 21.654-17.012 33.51-39.867 33.51-22.339 0-36.774-10.654-43.819-24.574" />
	</symbol>

	<symbol id="nodejs-icon" viewBox="0 0 256 289">
		<path d="m127.999999 288.463771c-3.975155 0-7.6853-1.060043-11.130435-2.915115l-35.2463756-20.935818c-5.3002084-2.915114-2.650103-3.975156-1.0600426-4.505177 7.1552801-2.385091 8.4803317-2.915114 15.900623-7.15528.7950291-.53002 1.8550717-.265009 2.650103.265011l27.0310552 16.165632c1.060043.530021 2.385094.530021 3.180126 0l105.739129-61.21739c1.060043-.530023 1.590063-1.590063 1.590063-2.915115v-122.1697723c0-1.3250538-.53002-2.3850941-1.590063-2.9151143l-105.739129-60.9523818c-1.060043-.5300201-2.385094-.5300201-3.180126 0l-105.7391316 60.9523818c-1.0600403.5300202-1.5900605 1.8550717-1.5900605 2.9151143v122.1697723c0 1.060041.5300202 2.385092 1.5900605 2.915115l28.8861293 16.695652c15.6356117 7.950309 25.4409949-1.325052 25.4409949-10.600415v-120.579712c0-1.5900605 1.3250515-3.1801232 3.1801232-3.1801232h13.5155288c1.5900627 0 3.1801232 1.3250515 3.1801232 3.1801232v120.579712c0 20.935818-11.3954436 33.126293-31.2712211 33.126293-6.0952375 0-10.8654235 0-24.3809523-6.625258l-27.8260867-15.90062c-6.89026889-3.975157-11.1304347-11.395446-11.1304347-19.345758v-122.1697723c0-7.9503092 4.24016581-15.3706005 11.1304347-19.3457551l105.7391293-61.21739308c6.62526-3.71014336 15.635612-3.71014336 22.260872 0l105.739129 61.21739308c6.890269 3.9751546 11.130435 11.3954459 11.130435 19.3457551v122.1697723c0 7.950312-4.240166 15.370601-11.130435 19.345758l-105.739129 61.21739c-3.445137 1.590063-7.420291 2.385095-11.130437 2.385095zm32.596275-84.008283c-46.376813 0-55.917185-21.200829-55.917185-39.221533 0-1.590062 1.325052-3.180123 3.180123-3.180123h13.78054c1.590061 0 2.915112 1.06004 2.915112 2.650103 2.120083 14.045549 8.215323 20.935818 36.306419 20.935818 22.260871 0 31.801243-5.035197 31.801243-16.960663 0-6.890269-2.650103-11.925466-37.366461-15.370601-28.886127-2.915114-46.90683-9.275363-46.90683-32.331263 0-21.4658385 18.020703-34.1863359 48.231884-34.1863359 33.921324 0 50.616976 11.6604571 52.737059 37.1014499 0 .795031-.265011 1.590063-.795031 2.385094-.53002.53002-1.325052 1.06004-2.120083 1.06004h-13.780538c-1.325051 0-2.650103-1.06004-2.915114-2.385092-3.180123-14.575569-11.395446-19.345757-33.126293-19.345757-24.380954 0-27.296066 8.480332-27.296066 14.84058 0 7.685301 3.445134 10.070395 36.306418 14.310561 32.596273 4.240165 47.966873 10.335403 47.966873 33.126292-.265011 23.320912-19.345755 36.57143-53.00207 36.57143z" fill="#539e43" />
	</symbol>

	<symbol id="firefox-icon" viewBox="0 0 512 512">
		<defs>
			<radialGradient id="g" cx="210%" cy="-100%" r="290%">
				<stop offset=".1" stop-color="#ffe226" />
				<stop offset=".79" stop-color="#ff7139" />
			</radialGradient>
			<radialGradient id="c" cx="49%" cy="40%" r="128%" gradientTransform="matrix(.82 0 0 1 .088 0)">
				<stop offset=".3" stop-color="#960e18" />
				<stop offset=".35" stop-color="#b11927" stop-opacity=".74" />
				<stop offset=".43" stop-color="#db293d" stop-opacity=".34" />
				<stop offset=".5" stop-color="#f5334b" stop-opacity=".09" />
				<stop offset=".53" stop-color="#ff3750" stop-opacity="0" />
			</radialGradient>
			<radialGradient id="d" cx="48%" cy="-12%" r="140%">
				<stop offset=".13" stop-color="#fff44f" />
				<stop offset=".53" stop-color="#ff980e" />
			</radialGradient>
			<radialGradient id="e" cx="22.76%" cy="110.11%" r="100%">
				<stop offset=".35" stop-color="#3a8ee6" />
				<stop offset=".67" stop-color="#9059ff" />
				<stop offset="1" stop-color="#c139e6" />
			</radialGradient>
			<radialGradient id="f" cx="52%" cy="33%" r="59%" gradientTransform="scale(.9 1)">
				<stop offset=".21" stop-color="#9059ff" stop-opacity="0" />
				<stop offset=".97" stop-color="#6e008b" stop-opacity=".6" />
			</radialGradient>
			<radialGradient id="b" cx="87.4%" cy="-12.9%" r="128%" gradientTransform="matrix(.8 0 0 1 .178 .129)">
				<stop offset=".13" stop-color="#ffbd4f" />
				<stop offset=".28" stop-color="#ff980e" />
				<stop offset=".47" stop-color="#ff3750" />
				<stop offset=".78" stop-color="#eb0878" />
				<stop offset=".86" stop-color="#e50080" />
			</radialGradient>
			<radialGradient id="h" cx="84%" cy="-41%" r="180%">
				<stop offset=".11" stop-color="#fff44f" />
				<stop offset=".46" stop-color="#ff980e" />
				<stop offset=".72" stop-color="#ff3647" />
				<stop offset=".9" stop-color="#e31587" />
			</radialGradient>
			<radialGradient id="i" cx="16.1%" cy="-18.6%" r="348.8%" gradientTransform="scale(1 .47) rotate(84 .279 -.297)">
				<stop offset="0" stop-color="#fff44f" />
				<stop offset=".3" stop-color="#ff980e" />
				<stop offset=".57" stop-color="#ff3647" />
				<stop offset=".74" stop-color="#e31587" />
			</radialGradient>
			<radialGradient id="j" cx="18.9%" cy="-42.5%" r="238.4%">
				<stop offset=".14" stop-color="#fff44f" />
				<stop offset=".48" stop-color="#ff980e" />
				<stop offset=".66" stop-color="#ff3647" />
				<stop offset=".9" stop-color="#e31587" />
			</radialGradient>
			<radialGradient id="k" cx="159.3%" cy="-44.72%" r="313.1%">
				<stop offset=".09" stop-color="#fff44f" />
				<stop offset=".63" stop-color="#ff980e" />
			</radialGradient>
			<linearGradient id="firefox-icon-a" x1="87.25%" y1="15.5%" x2="9.4%" y2="93.1%">
				<stop offset=".05" stop-color="#fff44f" />
				<stop offset=".37" stop-color="#ff980e" />
				<stop offset=".53" stop-color="#ff3647" />
				<stop offset=".7" stop-color="#e31587" />
			</linearGradient>
			<linearGradient id="l" x1="80%" y1="14%" x2="18%" y2="84%">
				<stop offset=".17" stop-color="#fff44f" stop-opacity=".8" />
				<stop offset=".6" stop-color="#fff44f" stop-opacity="0" />
			</linearGradient>
		</defs>
		<path d="M478.711 166.353c-10.445-25.124-31.6-52.248-48.212-60.821 13.52 26.505 21.345 53.093 24.335 72.936 0 .039.015.136.047.4C427.706 111.135 381.627 83.823 344 24.355c-1.9-3.007-3.805-6.022-5.661-9.2a73.716 73.716 0 01-2.646-4.972A43.7 43.7 0 01332.1.677a.626.626 0 00-.546-.644.818.818 0 00-.451 0c-.034.012-.084.051-.12.065-.053.021-.12.069-.176.1.027-.036.083-.117.1-.136-60.37 35.356-80.85 100.761-82.732 133.484a120.249 120.249 0 00-66.142 25.488 71.355 71.355 0 00-6.225-4.7 111.338 111.338 0 01-.674-58.732c-24.688 11.241-43.89 29.01-57.85 44.7h-.111c-9.527-12.067-8.855-51.873-8.312-60.184-.114-.515-7.107 3.63-8.023 4.255a175.073 175.073 0 00-23.486 20.12 210.478 210.478 0 00-22.442 26.913c0 .012-.007.026-.011.038 0-.013.007-.026.011-.038a202.838 202.838 0 00-32.247 72.805c-.115.521-.212 1.061-.324 1.586-.452 2.116-2.08 12.7-2.365 15-.022.177-.032.347-.053.524a229.066 229.066 0 00-3.9 33.157c0 .41-.025.816-.025 1.227C16 388.418 123.6 496 256.324 496c118.865 0 217.56-86.288 236.882-199.63.407-3.076.733-6.168 1.092-9.271 4.777-41.21-.53-84.525-15.587-120.746zM201.716 354.447c1.124.537 2.18 1.124 3.334 1.639.048.033.114.07.163.1a126.191 126.191 0 01-3.497-1.739zm55.053-144.93zm198.131-30.59l-.032-.233c.012.085.027.174.04.259z" fill="url(#firefox-icon-a)" />
		<path d="M478.711 166.353c-10.445-25.124-31.6-52.248-48.212-60.821 13.52 26.505 21.345 53.093 24.335 72.936 0-.058.011.048.036.226.012.085.027.174.04.259 22.675 61.47 10.322 123.978-7.479 162.175-27.539 59.1-94.215 119.67-198.576 116.716C136.1 454.651 36.766 370.988 18.223 261.41c-3.379-17.28 0-26.054 1.7-40.084-2.071 10.816-2.86 13.94-3.9 33.157 0 .41-.025.816-.025 1.227C16 388.418 123.6 496 256.324 496c118.865 0 217.56-86.288 236.882-199.63.407-3.076.733-6.168 1.092-9.271 4.777-41.21-.53-84.525-15.587-120.746z" fill="url(#b)" />
		<path d="M478.711 166.353c-10.445-25.124-31.6-52.248-48.212-60.821 13.52 26.505 21.345 53.093 24.335 72.936 0-.058.011.048.036.226.012.085.027.174.04.259 22.675 61.47 10.322 123.978-7.479 162.175-27.539 59.1-94.215 119.67-198.576 116.716C136.1 454.651 36.766 370.988 18.223 261.41c-3.379-17.28 0-26.054 1.7-40.084-2.071 10.816-2.86 13.94-3.9 33.157 0 .41-.025.816-.025 1.227C16 388.418 123.6 496 256.324 496c118.865 0 217.56-86.288 236.882-199.63.407-3.076.733-6.168 1.092-9.271 4.777-41.21-.53-84.525-15.587-120.746z" fill="url(#c)" />
		<path d="M361.922 194.6c.524.368 1 .734 1.493 1.1a130.706 130.706 0 00-22.31-29.112C266.4 91.892 321.516 4.626 330.811.194c.027-.036.083-.117.1-.136-60.37 35.356-80.85 100.761-82.732 133.484 2.8-.194 5.592-.429 8.442-.429 45.051 0 84.289 24.77 105.301 61.487z" fill="url(#d)" />
		<path d="M256.772 209.514c-.393 5.978-21.514 26.593-28.9 26.593-68.339 0-79.432 41.335-79.432 41.335 3.027 34.81 27.261 63.475 56.611 78.643 1.339.692 2.694 1.317 4.05 1.935a132.768 132.768 0 007.059 2.886 106.743 106.743 0 0031.271 6.031c119.78 5.618 142.986-143.194 56.545-186.408 22.137-3.85 45.115 5.053 57.947 14.067-21.012-36.714-60.25-61.484-105.3-61.484-2.85 0-5.641.235-8.442.429a120.249 120.249 0 00-66.142 25.488c3.664 3.1 7.8 7.244 16.514 15.828 16.302 16.067 58.13 32.705 58.219 34.657z" fill="url(#e)" />
		<path d="M256.772 209.514c-.393 5.978-21.514 26.593-28.9 26.593-68.339 0-79.432 41.335-79.432 41.335 3.027 34.81 27.261 63.475 56.611 78.643 1.339.692 2.694 1.317 4.05 1.935a132.768 132.768 0 007.059 2.886 106.743 106.743 0 0031.271 6.031c119.78 5.618 142.986-143.194 56.545-186.408 22.137-3.85 45.115 5.053 57.947 14.067-21.012-36.714-60.25-61.484-105.3-61.484-2.85 0-5.641.235-8.442.429a120.249 120.249 0 00-66.142 25.488c3.664 3.1 7.8 7.244 16.514 15.828 16.302 16.067 58.13 32.705 58.219 34.657z" fill="url(#f)" />
		<path d="M170.829 151.036a244.042 244.042 0 014.981 3.3 111.338 111.338 0 01-.674-58.732c-24.688 11.241-43.89 29.01-57.85 44.7 1.155-.033 36.014-.66 53.543 10.732z" fill="url(#g)" />
		<path d="M18.223 261.41C36.766 370.988 136.1 454.651 248.855 457.844c104.361 2.954 171.037-57.62 198.576-116.716 17.8-38.2 30.154-100.7 7.479-162.175l-.008-.026-.032-.233c-.025-.178-.04-.284-.036-.226 0 .039.015.136.047.4 8.524 55.661-19.79 109.584-64.051 146.044l-.133.313c-86.245 70.223-168.774 42.368-185.484 30.966a144.108 144.108 0 01-3.5-1.743c-50.282-24.029-71.054-69.838-66.6-109.124-42.457 0-56.934-35.809-56.934-35.809s38.119-27.179 88.358-3.541c46.53 21.893 90.228 3.543 90.233 3.541-.089-1.952-41.917-18.59-58.223-34.656-8.713-8.584-12.85-12.723-16.514-15.828a71.355 71.355 0 00-6.225-4.7 282.929 282.929 0 00-4.981-3.3c-17.528-11.392-52.388-10.765-53.543-10.735h-.111c-9.527-12.067-8.855-51.873-8.312-60.184-.114-.515-7.107 3.63-8.023 4.255a175.073 175.073 0 00-23.486 20.12 210.478 210.478 0 00-22.442 26.919c0 .012-.007.026-.011.038 0-.013.007-.026.011-.038a202.838 202.838 0 00-32.247 72.805c-.115.521-8.65 37.842-4.44 57.199z" fill="url(#h)" />
		<path d="M341.105 166.587a130.706 130.706 0 0122.31 29.112c1.323.994 2.559 1.985 3.608 2.952 54.482 50.2 25.936 121.2 23.807 126.26 44.261-36.46 72.575-90.383 64.051-146.044C427.706 111.135 381.627 83.823 344 24.355c-1.9-3.007-3.805-6.022-5.661-9.2a73.716 73.716 0 01-2.646-4.972A43.7 43.7 0 01332.1.677a.626.626 0 00-.546-.644.818.818 0 00-.451 0c-.034.012-.084.051-.12.065-.053.021-.12.069-.176.1-9.291 4.428-64.407 91.694 10.298 166.389z" fill="url(#i)" />
		<path d="M367.023 198.651c-1.049-.967-2.285-1.958-3.608-2.952-.489-.368-.969-.734-1.493-1.1-12.832-9.014-35.81-17.917-57.947-14.067 86.441 43.214 63.235 192.026-56.545 186.408a106.743 106.743 0 01-31.271-6.031 134.51 134.51 0 01-7.059-2.886c-1.356-.618-2.711-1.243-4.05-1.935.048.033.114.07.163.1 16.71 11.4 99.239 39.257 185.484-30.966l.133-.313c2.129-5.054 30.675-76.057-23.807-126.258z" fill="url(#j)" />
		<path d="M148.439 277.443s11.093-41.335 79.432-41.335c7.388 0 28.509-20.615 28.9-26.593s-43.7 18.352-90.233-3.541c-50.239-23.638-88.358 3.541-88.358 3.541s14.477 35.809 56.934 35.809c-4.453 39.286 16.319 85.1 66.6 109.124 1.124.537 2.18 1.124 3.334 1.639-29.348-15.169-53.582-43.834-56.609-78.644z" fill="url(#k)" />
		<path d="M478.711 166.353c-10.445-25.124-31.6-52.248-48.212-60.821 13.52 26.505 21.345 53.093 24.335 72.936 0 .039.015.136.047.4C427.706 111.135 381.627 83.823 344 24.355c-1.9-3.007-3.805-6.022-5.661-9.2a73.716 73.716 0 01-2.646-4.972A43.7 43.7 0 01332.1.677a.626.626 0 00-.546-.644.818.818 0 00-.451 0c-.034.012-.084.051-.12.065-.053.021-.12.069-.176.1.027-.036.083-.117.1-.136-60.37 35.356-80.85 100.761-82.732 133.484 2.8-.194 5.592-.429 8.442-.429 45.053 0 84.291 24.77 105.3 61.484-12.832-9.014-35.81-17.917-57.947-14.067 86.441 43.214 63.235 192.026-56.545 186.408a106.743 106.743 0 01-31.271-6.031 134.51 134.51 0 01-7.059-2.886c-1.356-.618-2.711-1.243-4.05-1.935.048.033.114.07.163.1a144.108 144.108 0 01-3.5-1.743c1.124.537 2.18 1.124 3.334 1.639-29.35-15.168-53.584-43.833-56.611-78.643 0 0 11.093-41.335 79.432-41.335 7.388 0 28.509-20.615 28.9-26.593-.089-1.952-41.917-18.59-58.223-34.656-8.713-8.584-12.85-12.723-16.514-15.828a71.355 71.355 0 00-6.225-4.7 111.338 111.338 0 01-.674-58.732c-24.688 11.241-43.89 29.01-57.85 44.7h-.111c-9.527-12.067-8.855-51.873-8.312-60.184-.114-.515-7.107 3.63-8.023 4.255a175.073 175.073 0 00-23.486 20.12 210.478 210.478 0 00-22.435 26.916c0 .012-.007.026-.011.038 0-.013.007-.026.011-.038a202.838 202.838 0 00-32.247 72.805c-.115.521-.212 1.061-.324 1.586-.452 2.116-2.486 12.853-2.77 15.156-.022.177.021-.176 0 0a279.565 279.565 0 00-3.544 33.53c0 .41-.025.816-.025 1.227C16 388.418 123.6 496 256.324 496c118.865 0 217.56-86.288 236.882-199.63.407-3.076.733-6.168 1.092-9.271 4.777-41.21-.53-84.525-15.587-120.746zm-23.841 12.341c.012.085.027.174.04.259l-.008-.026-.032-.233z" fill="url(#l)" />
	</symbol>

	<symbol id="termux-icon" viewBox="0 0 512 512" fill="none">
		<rect width="512" height="512" fill="black" />
		<path d="M156.5 142.5H113.5L198.5 255.5V256.5L113.5 369.5H156.5L241.5 256.5V255.5L156.5 142.5Z" fill="white" />
		<path d="M398.5 341.5H270.5V369.5H398.5V341.5Z" fill="white" />
	</symbol>

	<symbol id="npm-icon" viewBox="0 0 32 32" fill="none">
		<path d="M0 10V20H9V22H16V20H32V10H0Z" fill="#CB3837" />
		<path d="M5.46205 12H2V18H5.46205V13.6111H7.22344V18H8.98482V12H5.46205ZM10.7462 12V20H14.269V18H17.731V12H10.7462ZM15.9696 16.3889H14.269V13.6111H15.9696V16.3889ZM22.9545 12H19.4924V18H22.9545V13.6111H24.7158V18H26.4772V13.6111H28.2386V18H30V12H22.9545Z" fill="white" />
	</symbol>


	<symbol id="git-icon" viewBox="0 0 32 32" fill="none">
		<path d="M2.58536 17.4132C1.80488 16.6327 1.80488 15.3673 2.58536 14.5868L14.5868 2.58536C15.3673 1.80488 16.6327 1.80488 17.4132 2.58536L29.4146 14.5868C30.1951 15.3673 30.1951 16.6327 29.4146 17.4132L17.4132 29.4146C16.6327 30.1951 15.3673 30.1951 14.5868 29.4146L2.58536 17.4132Z" fill="#EE513B" />
		<path d="M12.1489 5.06152L10.9336 6.27686L14.0725 9.41577C13.9455 9.68819 13.8746 9.99201 13.8746 10.3124C13.8746 11.222 14.4461 11.9981 15.2496 12.3012V19.9798C14.4461 20.2829 13.8746 21.059 13.8746 21.9686C13.8746 23.1422 14.826 24.0936 15.9996 24.0936C17.1732 24.0936 18.1246 23.1422 18.1246 21.9686C18.1246 21.144 17.6549 20.429 16.9684 20.0768V12.3117L19.9689 15.3122C19.8481 15.5791 19.7809 15.8754 19.7809 16.1874C19.7809 17.361 20.7323 18.3124 21.9059 18.3124C23.0795 18.3124 24.0309 17.361 24.0309 16.1874C24.0309 15.0138 23.0795 14.0624 21.9059 14.0624C21.6778 14.0624 21.4582 14.0983 21.2522 14.1648L18.0297 10.9423C18.0914 10.7433 18.1246 10.5317 18.1246 10.3124C18.1246 9.13878 17.1732 8.18738 15.9996 8.18738C15.7803 8.18738 15.5688 8.22061 15.3697 8.2823L12.1489 5.06152Z" fill="white" />
	</symbol>

	<symbol id="notesnook-icon" viewBox="0 0 500 500">
		<path d="M321 501H1V1h500v500H321m1.261-262.5c0 12 .635 24.044-.21 35.984-.622 8.788 1.08 14.73 10.567 16.385.634.11 1.204.553 1.819.806 8.676 3.573 17.355 7.14 26.205 10.78.152-1.095.278-1.58.278-2.065 0-33.499.364-67.003-.143-100.494-.368-24.357-8.506-46.45-23.917-65.3-22.238-27.203-51.287-41.098-86.513-41.31-34.997-.212-69.997-.047-104.995-.03-1.286 0-2.571.168-4.049.271V210.88l38.5 16.037c0-7.72.073-14.838-.016-21.954-.152-12.03 2.534-23.302 7.85-34.147 17.244-35.18 63.342-49.659 97.324-30.186 24.6 14.097 36.934 35.556 37.273 63.871.131 10.998.025 22 .027 33.999m-142.253 66.648c-.071-13.329-.07-26.659-.306-39.985-.03-1.662-.88-4.28-2.071-4.8-11.973-5.226-24.098-10.106-36.539-15.231 0 16.98.056 33.463-.01 49.945-.15 36.886 13.355 67.5 42.505 90.42 24.796 19.495 53.352 26.85 84.41 21.99 30.242-4.732 54.614-19.973 72.601-44.9 6.19-8.579 11.287-17.81 14.193-28.2l-35.176-14.689c-2.19 4.725-3.954 9.407-6.445 13.663-2.585 4.418-5.614 8.64-8.897 12.575-20.558 24.638-59.327 31.45-87.219 15.533-21.58-12.316-33.71-30.892-37.046-56.32z"/>
		<path fill="#fdfdfd" d="M322.261 238c-.002-11.5.104-22.5-.027-33.499-.34-28.315-12.672-49.774-37.273-63.871-33.982-19.473-80.08-4.994-97.324 30.186-5.316 10.845-8.002 22.116-7.85 34.147.09 7.116.016 14.233.016 21.954l-38.5-16.037V93.527c1.478-.103 2.763-.271 4.049-.272 34.998-.016 69.998-.181 104.995.03 35.226.213 64.275 14.108 86.513 41.31 15.411 18.85 23.549 40.944 23.917 65.301.507 33.491.143 66.995.143 100.494 0 .485-.126.97-.278 2.065-8.85-3.64-17.529-7.207-26.205-10.78-.615-.253-1.185-.695-1.819-.806-9.487-1.654-11.19-7.597-10.567-16.385.845-11.94.21-23.985.21-36.484zM180.032 305.61c3.312 24.967 15.441 43.543 37.022 55.859 27.892 15.917 66.661 9.105 87.22-15.533 3.282-3.935 6.311-8.157 8.896-12.575 2.491-4.256 4.255-8.938 6.445-13.663l35.176 14.689c-2.906 10.39-8.002 19.621-14.193 28.2-17.987 24.927-42.36 40.168-72.6 44.9-31.06 4.86-59.615-2.495-84.41-21.99-29.15-22.92-42.657-53.534-42.507-90.42.067-16.482.011-32.965.011-49.945 12.441 5.125 24.566 10.005 36.539 15.231 1.192.52 2.042 3.138 2.071 4.8.235 13.326.235 26.656.33 40.446z"/>
	</symbol>

	<symbol id="android-icon" viewBox="0 0 512 512" fill="#000">
		<g id="SVGRepo_bgCarrier" stroke-width="0" />
		<g id="SVGRepo_tracerCarrier" stroke-linecap="round" stroke-linejoin="round" />
		<g id="SVGRepo_iconCarrier">
			<rect width="512" height="512" rx="15%" fill="#ffffff00" />
			<path d="m338.1555 305.70985a14.86683 14.86683 0 1 1 14.8641-14.86963 14.88644 14.88644 0 0 1 -14.8641 14.86963m-164.311 0a14.86683 14.86683 0 1 1 14.864-14.86963 14.883638 14.883638 0 0 1 -14.864 14.86963m169.642-89.54555 29.7085-51.45542a6.1820238 6.1820238 0 1 0 -10.704-6.18821l-30.0839 52.10534c-23.0047-10.49951-48.8417-16.34595-76.4099-16.34595s-53.4024 5.85485-76.4072 16.34595l-30.081-52.10534a6.1811349 6.1811349 0 1 0 -10.7068 6.1798l29.7113 51.46383c-51.0156 27.7475-85.9094 79.39341-91.0135 140.41269h357c-5.1097-61.01928-40.0007-112.66519-91.0135-140.41269" fill="#3ddc84" />
		</g>
	</symbol>

	<symbol id="acode-icon" viewBox="685 334 543 409">
		<style>
			.acode-icon0 {
				fill: #3499fe;
			}
		</style>
		<g>
			<path class="acode-icon0" d="M901.06 368.39c1.54-9.11 9.61-17.98 16.49-17.98h42.28c9.31 0 17.81 11.45 15 25.95-16.32 84.09-48.75 253.82-63.92 334.21-2.15 11.4-10.51 17.02-16.04 17.02h-36.49c-7.06 0-17.09-9.66-15.71-17.67 18.15-105.18 43.83-255.62 58.39-341.53z" />
			<image style="overflow:visible;opacity:.5" width="164" height="409" transform="translate(922 334)" />
			<path class="acode-icon0" d="M1011.84 367.92c-1.54-9.11-9.61-17.98-16.49-17.98h-42.28c-9.31 0-17.81 11.45-15 25.95 16.32 84.09 48.75 253.82 63.92 334.21 2.15 11.4 10.51 17.02 16.04 17.02h36.49c7.06 0 17.09-9.66 15.71-17.67-18.16-105.17-43.83-255.62-58.39-341.53z" />
		</g>
		<g>
			<image style="overflow:visible;opacity:.5" width="196" height="246" transform="translate(1032 423)" />
			<path class="acode-icon0" d="M1123.02 545.88c-4.64-4.84-53.34-55.72-70.25-72.53-6.23-6.19-6.23-16.45-3.45-23.32 2.17-5.36 8.75-11.32 15.15-11.29 11.27.05 35.05 0 46.31 0 4.16 0 7.87 2.18 11.59 5.95 20.31 20.55 59 60.43 80.61 83.36 1.44 1.52 2.93 2.88 4.1 4.12 3.54 3.75 4.64 8.13 4.84 11.56.09.93.13 1.8.15 2.58.09 3.59-.81 8.86-4.99 13.27-1.17 1.24-2.66 2.6-4.1 4.12-21.61 22.93-60.3 62.81-80.61 83.36-3.72 3.77-7.43 5.95-11.59 5.95-11.26 0-35.04-.05-46.31 0-6.4.03-12.98-5.93-15.15-11.29-2.78-6.87-2.78-17.13 3.45-23.32 16.92-16.79 65.62-67.67 70.25-72.52z" />
		</g>
		<g>
			<image style="overflow:visible;opacity:.5" width="196" height="245" transform="translate(685 424)" />
			<path class="acode-icon0" d="M789.67 546.46c4.64-4.84 53.34-55.72 70.25-72.53 6.23-6.19 6.23-16.45 3.45-23.32-2.17-5.36-8.75-11.32-15.15-11.29-11.27.05-35.05 0-46.31 0-4.16 0-7.87 2.18-11.59 5.95-20.31 20.55-59 60.43-80.61 83.36-1.44 1.52-2.93 2.88-4.1 4.12-3.54 3.75-4.64 8.13-4.84 11.56-.09.93-.13 1.8-.15 2.58-.09 3.59.81 8.86 4.99 13.27 1.17 1.24 2.66 2.6 4.1 4.12 21.61 22.93 60.3 62.81 80.61 83.36 3.72 3.77 7.43 5.95 11.59 5.95 11.26 0 35.04-.05 46.31 0 6.4.03 12.98-5.93 15.15-11.29 2.78-6.87 2.78-17.13-3.45-23.32-16.91-16.8-65.61-67.68-70.25-72.52z" />
		</g>
	</symbol>
	
	<symbol id="heliboard-icon" viewBox="0 -960 4320 4320" xmlns:xlink="http://www.w3.org/1999/xlink">
		<defs>
			<linearGradient xlink:href="#heliboard-icon-a" id="heliboard-icon-b" x1="25.335" y1="-941.533" x2="4298.259" y2="3369.642" gradientUnits="userSpaceOnUse" gradientTransform="matrix(1.00554 0 0 .9954 -3.423 12.287)" />
			<linearGradient id="heliboard-icon-a">
				<stop style="stop-color:#cb2852;stop-opacity:1" offset="0" />
				<stop style="stop-color:#7473e4;stop-opacity:1" offset="1" />
			</linearGradient>
			<linearGradient xlink:href="#heliboard-icon-a" id="heliboard-icon-c" x1="1240" y1="612.656" x2="3080" y2="1952.667" gradientUnits="userSpaceOnUse" />
			<linearGradient xlink:href="#heliboard-icon-a" id="heliboard-icon-d" gradientUnits="userSpaceOnUse" x1="1240" y1="612.656" x2="3080" y2="1952.667" />
			<linearGradient xlink:href="#heliboard-icon-a" id="heliboard-icon-e" gradientUnits="userSpaceOnUse" x1="1240" y1="612.656" x2="3080" y2="1952.667" />
			<linearGradient xlink:href="#heliboard-icon-a" id="heliboard-icon-f" gradientUnits="userSpaceOnUse" x1="1240" y1="612.656" x2="3080" y2="1952.667" />
			<linearGradient xlink:href="#heliboard-icon-a" id="heliboard-icon-g" gradientUnits="userSpaceOnUse" x1="1240" y1="612.656" x2="3080" y2="1952.667" />
			<linearGradient xlink:href="#heliboard-icon-a" id="heliboard-icon-h" gradientUnits="userSpaceOnUse" x1="1240" y1="612.656" x2="3080" y2="1952.667" />
			<linearGradient xlink:href="#heliboard-icon-a" id="heliboard-icon-i" gradientUnits="userSpaceOnUse" x1="1240" y1="612.656" x2="3080" y2="1952.667" />
			<linearGradient xlink:href="#heliboard-icon-a" id="heliboard-icon-j" gradientUnits="userSpaceOnUse" x1="1240" y1="612.656" x2="3080" y2="1952.667" />
			<linearGradient xlink:href="#heliboard-icon-a" id="heliboard-icon-k" gradientUnits="userSpaceOnUse" x1="1240" y1="612.656" x2="3080" y2="1952.667" />
			<linearGradient xlink:href="#heliboard-icon-a" id="heliboard-icon-l" gradientUnits="userSpaceOnUse" x1="1240" y1="612.656" x2="3080" y2="1952.667" />
		</defs>
		<path style="fill:url(#heliboard-icon-b);stroke-width:0;stroke-linejoin:round;stroke-dasharray:none;paint-order:stroke markers fill" d="M0-960h4320v4320H0Z" />
		<g style="fill:#fff;fill-opacity:1">
			<path d="M1288.8 999.333q-5.867 0-10.133-3.733-3.734-3.733-3.734-10.133v-345.6q0-5.867 3.734-9.6Q1282.933 626 1288.8 626h77.867q5.866 0 9.6 4.267 3.733 3.733 3.733 9.6v124.266h120V639.867q0-5.867 3.733-9.6Q1508 626 1513.867 626h77.866q5.867 0 9.6 4.267 4.267 3.733 4.267 9.6v345.6q0 5.866-4.267 10.133-3.733 3.733-9.6 3.733h-77.866q-5.867 0-10.134-3.733-3.733-4.267-3.733-10.133v-128h-120v128q0 5.866-3.733 10.133-3.734 3.733-9.6 3.733z" style="font-size:533.333px;line-height:3;font-family:Rubik;-inkscape-font-specification:'Rubik, @wght=750';font-variation-settings:'wght' 750;text-align:center;letter-spacing:80px;word-spacing:-174.8px;text-anchor:middle;fill-rule:evenodd;stroke-width:302.362;stroke-linecap:round;paint-order:stroke markers fill" aria-label="H" transform="translate(0 39.984)" />
			<path style="font-variation-settings:'wght' 700;fill:#fff;fill-opacity:1;fill-rule:evenodd;stroke:none;stroke-width:248.041;stroke-linecap:round;paint-order:stroke markers fill" d="M1920 612.656c-110.8 0-200 89.2-200 200s89.2 200 200 200 200-89.2 200-200-89.2-200-200-200zm-28.36 58.047c.642-.05 1.287 0 1.954 0h52.812c5.334 0 9.86 1.566 13.594 4.766 3.733 3.733 5.625 8.508 5.625 14.375v77.187h77.188c5.333 0 9.86 1.892 13.593 5.625 3.734 3.734 5.625 8.26 5.625 13.594v52.813c0 5.333-1.891 9.86-5.625 13.593-3.733 3.734-8.26 5.625-13.594 5.625h-77.187v77.188c0 5.333-1.892 9.86-5.625 13.593-3.733 3.734-8.26 5.625-13.594 5.625h-52.812c-5.334 0-9.86-1.891-13.594-5.625-3.733-3.733-5.625-8.26-5.625-13.593V858.28h-77.188c-5.866 0-10.641-1.891-14.375-5.625-3.2-3.733-4.843-8.26-4.843-13.593V786.25c0-5.333 1.643-9.86 4.843-13.594 3.734-3.733 8.509-5.625 14.375-5.625h77.188v-77.187c0-5.867 1.892-10.642 5.625-14.375 3.267-2.8 7.149-4.416 11.64-4.766z" transform="translate(0 39.984)" />
			<path style="font-variation-settings:'wght' 700;fill-rule:evenodd;stroke-width:248.041;stroke-linecap:round;paint-order:stroke markers fill" d="M2400 612.667c110.8 0 200 89.2 200 200s-89.2 200-200 200-200-89.2-200-200 89.2-200 200-200z" transform="translate(0 39.984)" />
			<path style="font-variation-settings:'wght' 700;fill:#fff;fill-opacity:1;fill-rule:evenodd;stroke:none;stroke-width:248.041;stroke-linecap:round;paint-order:stroke markers fill" d="M2880 612.656c-110.8 0-200 89.2-200 200s89.2 200 200 200 200-89.2 200-200-89.2-200-200-200zm-122.813 154.375h245.626c5.333 0 9.86 1.892 13.593 5.625 3.734 3.734 5.625 8.26 5.625 13.594v52.813c0 5.333-1.891 9.86-5.625 13.593-3.733 3.734-8.26 5.625-13.594 5.625h-245.624c-5.867 0-10.642-1.891-14.376-5.625-3.2-3.733-4.843-8.26-4.843-13.593V786.25c0-5.333 1.644-9.86 4.844-13.594 3.733-3.733 8.508-5.625 14.374-5.625zM2400 1172.656c-110.8 0-200 89.2-200 200s89.2 200 200 200 200-89.2 200-200-89.2-200-200-200zm-28.36 58.047c.642-.05 1.287 0 1.954 0h52.812c5.334 0 9.86 1.566 13.594 4.766 3.733 3.733 5.625 8.508 5.625 14.375v77.187h77.188c5.333 0 9.86 1.892 13.593 5.625 3.734 3.734 5.625 8.26 5.625 13.594v52.813c0 5.333-1.891 9.86-5.625 13.593-3.733 3.734-8.26 5.625-13.594 5.625h-77.187v77.188c0 5.333-1.892 9.86-5.625 13.593-3.733 3.734-8.26 5.625-13.594 5.625h-52.812c-5.334 0-9.86-1.891-13.594-5.625-3.733-3.733-5.625-8.26-5.625-13.593v-77.188h-77.188c-5.866 0-10.641-1.891-14.374-5.625-3.2-3.733-4.844-8.26-4.844-13.594v-52.812c0-5.333 1.644-9.86 4.844-13.594 3.733-3.733 8.508-5.625 14.374-5.625h77.188v-77.187c0-5.867 1.892-10.642 5.625-14.375 3.267-2.8 7.149-4.416 11.64-4.766z" transform="translate(0 39.984)" />
			<path style="font-variation-settings:'wght' 700;fill-rule:evenodd;stroke-width:248.041;stroke-linecap:round;paint-order:stroke markers fill" d="M1920 1172.667c110.8 0 200 89.2 200 200s-89.2 200-200 200-200-89.2-200-200 89.2-200 200-200z" transform="translate(0 39.984)" />
			<path style="font-variation-settings:'wght' 700;fill:#fff;fill-opacity:1;fill-rule:evenodd;stroke:none;stroke-width:248.041;stroke-linecap:round;paint-order:stroke markers fill" d="M1440 1172.656c-110.8 0-200 89.2-200 200s89.2 200 200 200 200-89.2 200-200-89.2-200-200-200zm-122.813 154.375h245.626c5.333 0 9.86 1.892 13.593 5.625 3.734 3.734 5.625 8.26 5.625 13.594v52.813c0 5.333-1.891 9.86-5.625 13.593-3.733 3.734-8.26 5.625-13.594 5.625h-245.624c-5.867 0-10.642-1.891-14.376-5.625-3.2-3.733-4.843-8.26-4.843-13.594v-52.812c0-5.333 1.644-9.86 4.844-13.594 3.733-3.733 8.508-5.625 14.374-5.625z" transform="translate(0 39.984)" />
			<path style="font-variation-settings:'wght' 700;fill-rule:evenodd;stroke-width:303.786;stroke-linecap:round;paint-order:stroke markers fill" d="M1660 1752.667h1000c55.4 0 100 44.6 100 100s-44.6 100-100 100H1660c-55.4 0-100-44.6-100-100s44.6-100 100-100z" transform="translate(0 39.984)" />
			<path d="M2732 1559.333q-5.867 0-10.133-3.733-3.734-4.267-3.734-10.133v-345.6q0-5.867 3.734-9.6Q2726.133 1186 2732 1186h166.4q46.933 0 76.8 12.8 30.4 12.8 44.8 36.8 14.4 23.467 14.4 57.6 0 18.667-7.467 33.067-6.933 14.4-17.067 24-10.133 9.066-19.2 13.866 20.8 9.067 36.267 30.934 15.467 21.866 15.467 50.133 0 36.267-16.534 61.867-16 25.066-46.933 38.933-30.933 13.333-75.733 13.333zm91.2-75.2h68.266q20.8 0 30.934-11.733 10.133-12.267 10.133-27.733 0-16-10.667-27.734-10.133-11.733-30.4-11.733H2823.2zm0-151.466h63.466q19.734 0 28.8-10.667 9.6-10.667 9.6-25.6 0-14.933-9.6-25.067-9.066-10.666-28.8-10.666H2823.2z" style="font-size:533.333px;line-height:3;font-family:Rubik;-inkscape-font-specification:'Rubik, @wght=750';font-variation-settings:'wght' 750;text-align:center;letter-spacing:80px;word-spacing:-174.8px;text-anchor:middle;fill-rule:evenodd;stroke-width:302.362;stroke-linecap:round;paint-order:stroke markers fill" aria-label="B" transform="translate(0 39.984)" />
		</g>
		<path style="fill:#fefefe;fill-opacity:1;stroke-width:0;stroke-linejoin:round;stroke-dasharray:none;paint-order:stroke markers fill" d="M4320-960h4320v4320H4320Z" />
		<g style="fill:url(#heliboard-icon-c);fill-opacity:1" transform="translate(4320 39.984)">
			<path d="M1288.8 999.333q-5.867 0-10.133-3.733-3.734-3.733-3.734-10.133v-345.6q0-5.867 3.734-9.6Q1282.933 626 1288.8 626h77.867q5.866 0 9.6 4.267 3.733 3.733 3.733 9.6v124.266h120V639.867q0-5.867 3.733-9.6Q1508 626 1513.867 626h77.866q5.867 0 9.6 4.267 4.267 3.733 4.267 9.6v345.6q0 5.866-4.267 10.133-3.733 3.733-9.6 3.733h-77.866q-5.867 0-10.134-3.733-3.733-4.267-3.733-10.133v-128h-120v128q0 5.866-3.733 10.133-3.734 3.733-9.6 3.733z" style="font-size:533.333px;line-height:3;font-family:Rubik;-inkscape-font-specification:'Rubik, @wght=750';font-variation-settings:'wght' 750;text-align:center;letter-spacing:80px;word-spacing:-174.8px;text-anchor:middle;fill:url(#heliboard-icon-d);fill-rule:evenodd;stroke-width:302.362;stroke-linecap:round;paint-order:stroke markers fill" aria-label="H" />
			<path style="font-variation-settings:'wght' 700;fill:url(#heliboard-icon-e);fill-opacity:1;fill-rule:evenodd;stroke:none;stroke-width:248.041;stroke-linecap:round;paint-order:stroke markers fill" d="M1920 612.656c-110.8 0-200 89.2-200 200s89.2 200 200 200 200-89.2 200-200-89.2-200-200-200zm-28.36 58.047c.642-.05 1.287 0 1.954 0h52.812c5.334 0 9.86 1.566 13.594 4.766 3.733 3.733 5.625 8.508 5.625 14.375v77.187h77.188c5.333 0 9.86 1.892 13.593 5.625 3.734 3.734 5.625 8.26 5.625 13.594v52.813c0 5.333-1.891 9.86-5.625 13.593-3.733 3.734-8.26 5.625-13.594 5.625h-77.187v77.188c0 5.333-1.892 9.86-5.625 13.593-3.733 3.734-8.26 5.625-13.594 5.625h-52.812c-5.334 0-9.86-1.891-13.594-5.625-3.733-3.733-5.625-8.26-5.625-13.593V858.28h-77.188c-5.866 0-10.641-1.891-14.375-5.625-3.2-3.733-4.843-8.26-4.843-13.593V786.25c0-5.333 1.643-9.86 4.843-13.594 3.734-3.733 8.509-5.625 14.375-5.625h77.188v-77.187c0-5.867 1.892-10.642 5.625-14.375 3.267-2.8 7.149-4.416 11.64-4.766z" />
			<path style="font-variation-settings:'wght' 700;fill:url(#heliboard-icon-f);fill-rule:evenodd;stroke-width:248.041;stroke-linecap:round;paint-order:stroke markers fill" d="M2400 612.667c110.8 0 200 89.2 200 200s-89.2 200-200 200-200-89.2-200-200 89.2-200 200-200z" />
			<path style="font-variation-settings:'wght' 700;fill:url(#heliboard-icon-g);fill-opacity:1;fill-rule:evenodd;stroke:none;stroke-width:248.041;stroke-linecap:round;paint-order:stroke markers fill" d="M2880 612.656c-110.8 0-200 89.2-200 200s89.2 200 200 200 200-89.2 200-200-89.2-200-200-200zm-122.813 154.375h245.626c5.333 0 9.86 1.892 13.593 5.625 3.734 3.734 5.625 8.26 5.625 13.594v52.813c0 5.333-1.891 9.86-5.625 13.593-3.733 3.734-8.26 5.625-13.594 5.625h-245.624c-5.867 0-10.642-1.891-14.376-5.625-3.2-3.733-4.843-8.26-4.843-13.593V786.25c0-5.333 1.644-9.86 4.844-13.594 3.733-3.733 8.508-5.625 14.374-5.625z" />
			<path style="font-variation-settings:'wght' 700;fill:url(#heliboard-icon-h);fill-opacity:1;fill-rule:evenodd;stroke:none;stroke-width:248.041;stroke-linecap:round;paint-order:stroke markers fill" d="M2400 1172.656c-110.8 0-200 89.2-200 200s89.2 200 200 200 200-89.2 200-200-89.2-200-200-200zm-28.36 58.047c.642-.05 1.287 0 1.954 0h52.812c5.334 0 9.86 1.566 13.594 4.766 3.733 3.733 5.625 8.508 5.625 14.375v77.187h77.188c5.333 0 9.86 1.892 13.593 5.625 3.734 3.734 5.625 8.26 5.625 13.594v52.813c0 5.333-1.891 9.86-5.625 13.593-3.733 3.734-8.26 5.625-13.594 5.625h-77.187v77.188c0 5.333-1.892 9.86-5.625 13.593-3.733 3.734-8.26 5.625-13.594 5.625h-52.812c-5.334 0-9.86-1.891-13.594-5.625-3.733-3.733-5.625-8.26-5.625-13.593v-77.188h-77.188c-5.866 0-10.641-1.891-14.374-5.625-3.2-3.733-4.844-8.26-4.844-13.594v-52.812c0-5.333 1.644-9.86 4.844-13.594 3.733-3.733 8.508-5.625 14.374-5.625h77.188v-77.187c0-5.867 1.892-10.642 5.625-14.375 3.267-2.8 7.149-4.416 11.64-4.766z" />
			<path style="font-variation-settings:'wght' 700;fill:url(#heliboard-icon-i);fill-rule:evenodd;stroke-width:248.041;stroke-linecap:round;paint-order:stroke markers fill" d="M1920 1172.667c110.8 0 200 89.2 200 200s-89.2 200-200 200-200-89.2-200-200 89.2-200 200-200z" />
			<path style="font-variation-settings:'wght' 700;fill:url(#heliboard-icon-j);fill-opacity:1;fill-rule:evenodd;stroke:none;stroke-width:248.041;stroke-linecap:round;paint-order:stroke markers fill" d="M1440 1172.656c-110.8 0-200 89.2-200 200s89.2 200 200 200 200-89.2 200-200-89.2-200-200-200zm-122.813 154.375h245.626c5.333 0 9.86 1.892 13.593 5.625 3.734 3.734 5.625 8.26 5.625 13.594v52.813c0 5.333-1.891 9.86-5.625 13.593-3.733 3.734-8.26 5.625-13.594 5.625h-245.624c-5.867 0-10.642-1.891-14.376-5.625-3.2-3.733-4.843-8.26-4.843-13.594v-52.812c0-5.333 1.644-9.86 4.844-13.594 3.733-3.733 8.508-5.625 14.374-5.625z" />
			<path style="font-variation-settings:'wght' 700;fill:url(#heliboard-icon-k);fill-rule:evenodd;stroke-width:303.786;stroke-linecap:round;paint-order:stroke markers fill" d="M1660 1752.667h1000c55.4 0 100 44.6 100 100s-44.6 100-100 100H1660c-55.4 0-100-44.6-100-100s44.6-100 100-100z" />
			<path d="M2732 1559.333q-5.867 0-10.133-3.733-3.734-4.267-3.734-10.133v-345.6q0-5.867 3.734-9.6Q2726.133 1186 2732 1186h166.4q46.933 0 76.8 12.8 30.4 12.8 44.8 36.8 14.4 23.467 14.4 57.6 0 18.667-7.467 33.067-6.933 14.4-17.067 24-10.133 9.066-19.2 13.866 20.8 9.067 36.267 30.934 15.467 21.866 15.467 50.133 0 36.267-16.534 61.867-16 25.066-46.933 38.933-30.933 13.333-75.733 13.333zm91.2-75.2h68.266q20.8 0 30.934-11.733 10.133-12.267 10.133-27.733 0-16-10.667-27.734-10.133-11.733-30.4-11.733H2823.2zm0-151.466h63.466q19.734 0 28.8-10.667 9.6-10.667 9.6-25.6 0-14.933-9.6-25.067-9.066-10.666-28.8-10.666H2823.2z" style="font-size:533.333px;line-height:3;font-family:Rubik;-inkscape-font-specification:'Rubik, @wght=750';font-variation-settings:'wght' 750;text-align:center;letter-spacing:80px;word-spacing:-174.8px;text-anchor:middle;fill:url(#heliboard-icon-l);fill-rule:evenodd;stroke-width:302.362;stroke-linecap:round;paint-order:stroke markers fill" aria-label="B" />
		</g>
	</symbol>

	<!-- Ícones genéricos -->

	<symbol id="sunny-icon-outline" viewBox="0 0 48 48">
		<path fill="currentColor" d="M24 9.5q-.65 0-1.075-.425Q22.5 8.65 22.5 8V3.5q0-.65.425-1.075Q23.35 2 24 2q.65 0 1.075.425.425.425.425 1.075V8q0 .65-.425 1.075Q24.65 9.5 24 9.5Zm10.25 4.25q-.45-.45-.45-1.05 0-.6.45-1.05l3.15-3.2Q37.85 8 38.475 8t1.075.45Q40 8.9 40 9.5q0 .6-.45 1.05l-3.2 3.2q-.45.45-1.05.45-.6 0-1.05-.45ZM40 25.5q-.65 0-1.075-.425Q38.5 24.65 38.5 24q0-.65.425-1.075Q39.35 22.5 40 22.5h4.5q.65 0 1.075.425Q46 23.35 46 24q0 .65-.425 1.075-.425.425-1.075.425ZM24 46q-.65 0-1.075-.425-.425-.425-.425-1.075V40q0-.65.425-1.075Q23.35 38.5 24 38.5q.65 0 1.075.425.425.425.425 1.075v4.5q0 .65-.425 1.075Q24.65 46 24 46ZM11.65 13.75l-3.2-3.15Q8 10.15 8 9.525t.45-1.075Q8.9 8 9.5 8q.6 0 1.05.45l3.2 3.2q.45.45.45 1.05 0 .6-.45 1.05-.45.4-1.075.4t-1.025-.4Zm25.8 25.8-3.2-3.2q-.45-.45-.45-1.05 0-.6.45-1.05.4-.4 1.025-.4.625 0 1.075.4l3.25 3.15q.45.45.425 1.075Q40 39.1 39.6 39.55q-.45.45-1.075.45t-1.075-.45ZM3.5 25.5q-.65 0-1.075-.425Q2 24.65 2 24q0-.65.425-1.075Q2.85 22.5 3.5 22.5H8q.65 0 1.075.425Q9.5 23.35 9.5 24q0 .65-.425 1.075Q8.65 25.5 8 25.5Zm4.95 14.05Q8 39.1 8 38.5q0-.6.45-1.05l3.2-3.2q.4-.4 1.025-.4.625 0 1.075.4.45.45.45 1.075t-.45 1.075l-3.15 3.15q-.45.45-1.075.45t-1.075-.45ZM24 36q-5 0-8.5-3.5T12 24q0-5 3.5-8.5T24 12q5 0 8.5 3.5T36 24q0 5-3.5 8.5T24 36Zm0-3q3.75 0 6.375-2.625T33 24q0-3.75-2.625-6.375T24 15q-3.75 0-6.375 2.625T15 24q0 3.75 2.625 6.375T24 33Z" />
	</symbol>

	<symbol id="sunny-icon-filled" viewBox="0 0 48 48">
		<path fill="currentColor" d="M24 34q-4.15 0-7.075-2.925T14 24q0-4.15 2.925-7.075T24 14q4.15 0 7.075 2.925T34 24q0 4.15-2.925 7.075T24 34ZM3.5 25.5q-.65 0-1.075-.425Q2 24.65 2 24q0-.65.425-1.075Q2.85 22.5 3.5 22.5h5q.65 0 1.075.425Q10 23.35 10 24q0 .65-.425 1.075-.425.425-1.075.425Zm36 0q-.65 0-1.075-.425Q38 24.65 38 24q0-.65.425-1.075.425-.425 1.075-.425h5q.65 0 1.075.425Q46 23.35 46 24q0 .65-.425 1.075-.425.425-1.075.425ZM24 10q-.65 0-1.075-.425Q22.5 9.15 22.5 8.5v-5q0-.65.425-1.075Q23.35 2 24 2q.65 0 1.075.425.425.425.425 1.075v5q0 .65-.425 1.075Q24.65 10 24 10Zm0 36q-.65 0-1.075-.425-.425-.425-.425-1.075v-5q0-.65.425-1.075Q23.35 38 24 38q.65 0 1.075.425.425.425.425 1.075v5q0 .65-.425 1.075Q24.65 46 24 46ZM12 14.1l-2.85-2.8q-.45-.45-.425-1.075.025-.625.425-1.075.45-.45 1.075-.45t1.075.45L14.1 12q.4.45.4 1.05 0 .6-.4 1-.4.45-1.025.45-.625 0-1.075-.4Zm24.7 24.75L33.9 36q-.4-.45-.4-1.075t.45-1.025q.4-.45 1-.45t1.05.45l2.85 2.8q.45.45.425 1.075-.025.625-.425 1.075-.45.45-1.075.45t-1.075-.45ZM33.9 14.1q-.45-.45-.45-1.05 0-.6.45-1.05l2.8-2.85q.45-.45 1.075-.425.625.025 1.075.425.45.45.45 1.075t-.45 1.075L36 14.1q-.4.4-1.025.4-.625 0-1.075-.4ZM9.15 38.85q-.45-.45-.45-1.075t.45-1.075L12 33.9q.45-.45 1.05-.45.6 0 1.05.45.45.45.45 1.05 0 .6-.45 1.05l-2.8 2.85q-.45.45-1.075.425-.625-.025-1.075-.425Z" />
	</symbol>

	<symbol id="bedtime-icon-outline" viewBox="0 0 48 48">
		<path fill="currentColor" d="M24 41q2.8 0 5.8-1.15t5.7-3.4q-4.9-1.7-8.45-4.575-3.55-2.875-5.625-6.65-2.075-3.775-2.65-8.25-.575-4.475.475-9.325-5.55 2.05-8.9 6.325Q7 18.25 7 24q0 7.2 4.9 12.1Q16.8 41 24 41Zm0 3q-4.2 0-7.85-1.55Q12.5 40.9 9.8 38.2q-2.7-2.7-4.25-6.35Q4 28.2 4 24q0-7.2 4.725-12.825Q13.45 5.55 20.5 4.3q1.3-.25 1.9.575.6.825.15 2.175-1.35 4.25-.9 8.65.45 4.4 2.5 8.15t5.575 6.475Q33.25 33.05 38 33.9q1.4.25 1.775 1.1.375.85-.475 1.85Q36.45 40 32.4 42q-4.05 2-8.4 2Zm-2.75-19.7Z" />
	</symbol>

	<symbol id="bedtime-icon-filled" viewBox="0 0 48 48">
		<path fill="currentColor" d="M39.3 36.85Q36.45 40 32.4 42q-4.05 2-8.4 2-4.2 0-7.85-1.55Q12.5 40.9 9.8 38.2q-2.7-2.7-4.25-6.35Q4 28.2 4 24q0-7.2 4.725-12.825Q13.45 5.55 20.5 4.3q1.3-.25 1.9.575.6.825.15 2.175-1.35 4.25-.9 8.65.45 4.4 2.5 8.15t5.575 6.475Q33.25 33.05 38 33.9q1.4.25 1.775 1.1.375.85-.475 1.85Z" />
	</symbol>
</svg>