<svg xmlns="http://www.w3.org/2000/svg" style="display: none;">
	<symbol id="html-icon" viewBox="0 0 108.35 122.88">
		<style type="text/css">
			.st0 {
				fill-rule: evenodd;
				clip-rule: evenodd;
				fill: #E44D26;
			}
			
			.st1 {
				fill-rule: evenodd;
				clip-rule: evenodd;
				fill: #F16529;
			}
			
			.st2 {
				fill-rule: evenodd;
				clip-rule: evenodd;
				fill: #EBEBEB;
			}
			
			.st3 {
				fill-rule: evenodd;
				clip-rule: evenodd;
				fill: #FFF;
			}
		</style>
		<g>
			<polygon class="st0" points="108.35,0 98.48,110.58 54.11,122.88 9.86,110.6 0,0 108.35,0" />
			<polygon class="st1" points="54.17,113.48 90.03,103.54 98.46,9.04 54.17,9.04 54.17,113.48" />
			<path class="st2" d="M34.99,36.17h19.19V22.61H20.16l0.32,3.64l3.33,37.38h30.35V50.06H36.23L34.99,36.17L34.99,36.17L34.99,36.17z M38.04,70.41H24.43l1.9,21.3l27.79,7.71l0.06-0.02V85.29l-0.06,0.02l-15.11-4.08L38.04,70.41L38.04,70.41L38.04,70.41z" />
			<path class="st3" d="M54.13,63.63h16.7l-1.57,17.59L54.13,85.3v14.11l27.81-7.71l0.2-2.29l3.19-35.71l0.33-3.64H54.13V63.63 L54.13,63.63z M54.13,36.14v0.03h32.76l0.27-3.05l0.62-6.88l0.32-3.64H54.13V36.14L54.13,36.14L54.13,36.14z" />
		</g>
	</symbol>
	
	<symbol id="css-icon" viewBox="0 0 296297 333333" xmlns:xlink="http://www.w3.org/1999/xlink">
		<defs>
			<linearGradient id="id4" gradientUnits="userSpaceOnUse" x1="54128.7" y1="79355.5" x2="240318" y2="79355.5">
				<stop offset="0" stop-color="#e8e7e5" />
				<stop offset="1" stop-color="#fff" />
			</linearGradient>
			<linearGradient id="id5" gradientUnits="userSpaceOnUse" x1="62019.3" y1="202868" x2="233515" y2="202868">
				<stop offset="0" stop-color="#e8e7e5" />
				<stop offset="1" stop-color="#fff" />
			</linearGradient>
			<linearGradient id="id6" gradientUnits="userSpaceOnUse" x1="104963" y1="99616.9" x2="104963" y2="171021">
				<stop offset="0" stop-color="#d1d3d4" />
				<stop offset=".388" stop-color="#d1d3d4" />
				<stop offset="1" stop-color="#d1d3d4" />
			</linearGradient>
			<linearGradient id="id7" gradientUnits="userSpaceOnUse" xlink:href="#id6" x1="194179" y1="61185.8" x2="194179" y2="135407" />
			<mask id="id0">
				<linearGradient id="id1" gradientUnits="userSpaceOnUse" x1="104963" y1="99616.9" x2="104963" y2="171021">
					<stop offset="0" stop-opacity="0" stop-color="#fff" />
					<stop offset=".388" stop-color="#fff" />
					<stop offset="1" stop-opacity=".831" stop-color="#fff" />
				</linearGradient><path fill="url(#id1)" d="M61737 99467h86453v71704H61737z" />
			</mask>
			<mask id="id2">
				<linearGradient id="id3" gradientUnits="userSpaceOnUse" x1="194179" y1="61185.8" x2="194179" y2="135407">
					<stop offset="0" stop-opacity="0" stop-color="#fff" />
					<stop offset=".388" stop-color="#fff" />
					<stop offset="1" stop-opacity=".831" stop-color="#fff" />
				</linearGradient>
				<path fill="url(#id3)" d="M147890 61036h92578v74521h-92578z" />
			</mask>
			<style>
				.fil6 {
					fill: #000;
					fill-opacity: .05098;
				}
			</style>
		</defs>
		<g id="Layer_x0020_1">
			<g id="_513085304">
				<path fill="#2062af" d="M268517 300922l-120369 32411-120371-32411L0 0h296297z" />
				<path fill="#3c9cd7" d="M148146 24374v283109l273 74 97409-26229 22485-256954z" />
				<path fill="#fff" d="M148040 99617l-86153 35880 2857 35524 83296-35614 88604-37883 3674-36339-92278 38432z" />
				<path mask="url(#id0)" fill="url(#id6)" d="M61887 135497l2857 35524 83295-35614V99617z" />
				<path mask="url(#id2)" fill="url(#id7)" d="M240318 61186l-92278 38431v35790l88604-37883z" />
				<path fill="url(#id5)" d="M62019 135497l2858 35524 127806 407-2859 47365-42055 11840-40428-10208-2450-29399H67327l4900 56756 75950 22457 75538-22050 9800-112692z" />
				<path class="fil6" d="M148040 135497H61888l2857 35524 83295 266v-35790zm0 95022l-408 114-40422-10208-2450-29399H67197l4899 56756 75944 22457v-39720z" />
				<path fill="url(#id4)" d="M54129 61186h186189l-3674 36339H58620l-4491-36339z" />
				<path class="fil6" d="M148040 61186H54129l4491 36339h89420z" />
			</g>
		</g>
	</symbol>
	
	<symbol id="javascript-icon" viewBox="0 0 256 256">
		<path d="M0 0h256v256H0V0z" fill="#F7DF1E" /><path d="M67.312 213.932l19.59-11.856c3.78 6.701 7.218 12.371 15.465 12.371 7.905 0 12.89-3.092 12.89-15.12v-81.798h24.057v82.138c0 24.917-14.606 36.259-35.916 36.259-19.245 0-30.416-9.967-36.087-21.996M152.381 211.354l19.588-11.341c5.157 8.421 11.859 14.607 23.715 14.607 9.969 0 16.325-4.984 16.325-11.858 0-8.248-6.53-11.17-17.528-15.98l-6.013-2.58c-17.357-7.387-28.87-16.667-28.87-36.257 0-18.044 13.747-31.792 35.228-31.792 15.294 0 26.292 5.328 34.196 19.247L210.29 147.43c-4.125-7.389-8.591-10.31-15.465-10.31-7.046 0-11.514 4.468-11.514 10.31 0 7.217 4.468 10.14 14.778 14.608l6.014 2.577c20.45 8.765 31.963 17.7 31.963 37.804 0 21.654-17.012 33.51-39.867 33.51-22.339 0-36.774-10.654-43.819-24.574" />
	</symbol>
	
	<symbol id="nodejs-icon" viewBox="0 0 256 289">
		<path d="m127.999999 288.463771c-3.975155 0-7.6853-1.060043-11.130435-2.915115l-35.2463756-20.935818c-5.3002084-2.915114-2.650103-3.975156-1.0600426-4.505177 7.1552801-2.385091 8.4803317-2.915114 15.900623-7.15528.7950291-.53002 1.8550717-.265009 2.650103.265011l27.0310552 16.165632c1.060043.530021 2.385094.530021 3.180126 0l105.739129-61.21739c1.060043-.530023 1.590063-1.590063 1.590063-2.915115v-122.1697723c0-1.3250538-.53002-2.3850941-1.590063-2.9151143l-105.739129-60.9523818c-1.060043-.5300201-2.385094-.5300201-3.180126 0l-105.7391316 60.9523818c-1.0600403.5300202-1.5900605 1.8550717-1.5900605 2.9151143v122.1697723c0 1.060041.5300202 2.385092 1.5900605 2.915115l28.8861293 16.695652c15.6356117 7.950309 25.4409949-1.325052 25.4409949-10.600415v-120.579712c0-1.5900605 1.3250515-3.1801232 3.1801232-3.1801232h13.5155288c1.5900627 0 3.1801232 1.3250515 3.1801232 3.1801232v120.579712c0 20.935818-11.3954436 33.126293-31.2712211 33.126293-6.0952375 0-10.8654235 0-24.3809523-6.625258l-27.8260867-15.90062c-6.89026889-3.975157-11.1304347-11.395446-11.1304347-19.345758v-122.1697723c0-7.9503092 4.24016581-15.3706005 11.1304347-19.3457551l105.7391293-61.21739308c6.62526-3.71014336 15.635612-3.71014336 22.260872 0l105.739129 61.21739308c6.890269 3.9751546 11.130435 11.3954459 11.130435 19.3457551v122.1697723c0 7.950312-4.240166 15.370601-11.130435 19.345758l-105.739129 61.21739c-3.445137 1.590063-7.420291 2.385095-11.130437 2.385095zm32.596275-84.008283c-46.376813 0-55.917185-21.200829-55.917185-39.221533 0-1.590062 1.325052-3.180123 3.180123-3.180123h13.78054c1.590061 0 2.915112 1.06004 2.915112 2.650103 2.120083 14.045549 8.215323 20.935818 36.306419 20.935818 22.260871 0 31.801243-5.035197 31.801243-16.960663 0-6.890269-2.650103-11.925466-37.366461-15.370601-28.886127-2.915114-46.90683-9.275363-46.90683-32.331263 0-21.4658385 18.020703-34.1863359 48.231884-34.1863359 33.921324 0 50.616976 11.6604571 52.737059 37.1014499 0 .795031-.265011 1.590063-.795031 2.385094-.53002.53002-1.325052 1.06004-2.120083 1.06004h-13.780538c-1.325051 0-2.650103-1.06004-2.915114-2.385092-3.180123-14.575569-11.395446-19.345757-33.126293-19.345757-24.380954 0-27.296066 8.480332-27.296066 14.84058 0 7.685301 3.445134 10.070395 36.306418 14.310561 32.596273 4.240165 47.966873 10.335403 47.966873 33.126292-.265011 23.320912-19.345755 36.57143-53.00207 36.57143z" fill="#539e43" />
	</symbol>
	
	<symbol id="firefox-icon" viewBox="0 0 512 512">
		<defs>
			<radialGradient id="g" cx="210%" cy="-100%" r="290%">
				<stop offset=".1" stop-color="#ffe226" />
				<stop offset=".79" stop-color="#ff7139" />
			</radialGradient>
			<radialGradient id="c" cx="49%" cy="40%" r="128%" gradientTransform="matrix(.82 0 0 1 .088 0)">
				<stop offset=".3" stop-color="#960e18" />
				<stop offset=".35" stop-color="#b11927" stop-opacity=".74" />
				<stop offset=".43" stop-color="#db293d" stop-opacity=".34" />
				<stop offset=".5" stop-color="#f5334b" stop-opacity=".09" />
				<stop offset=".53" stop-color="#ff3750" stop-opacity="0" />
			</radialGradient>
			<radialGradient id="d" cx="48%" cy="-12%" r="140%">
				<stop offset=".13" stop-color="#fff44f" />
				<stop offset=".53" stop-color="#ff980e" />
			</radialGradient>
			<radialGradient id="e" cx="22.76%" cy="110.11%" r="100%">
				<stop offset=".35" stop-color="#3a8ee6" />
				<stop offset=".67" stop-color="#9059ff" />
				<stop offset="1" stop-color="#c139e6" />
			</radialGradient>
			<radialGradient id="f" cx="52%" cy="33%" r="59%" gradientTransform="scale(.9 1)">
				<stop offset=".21" stop-color="#9059ff" stop-opacity="0" />
				<stop offset=".97" stop-color="#6e008b" stop-opacity=".6" />
			</radialGradient>
			<radialGradient id="b" cx="87.4%" cy="-12.9%" r="128%" gradientTransform="matrix(.8 0 0 1 .178 .129)">
				<stop offset=".13" stop-color="#ffbd4f" />
				<stop offset=".28" stop-color="#ff980e" />
				<stop offset=".47" stop-color="#ff3750" />
				<stop offset=".78" stop-color="#eb0878" />
				<stop offset=".86" stop-color="#e50080" />
			</radialGradient>
			<radialGradient id="h" cx="84%" cy="-41%" r="180%">
				<stop offset=".11" stop-color="#fff44f" />
				<stop offset=".46" stop-color="#ff980e" />
				<stop offset=".72" stop-color="#ff3647" />
				<stop offset=".9" stop-color="#e31587" />
			</radialGradient>
			<radialGradient id="i" cx="16.1%" cy="-18.6%" r="348.8%" gradientTransform="scale(1 .47) rotate(84 .279 -.297)">
				<stop offset="0" stop-color="#fff44f" />
				<stop offset=".3" stop-color="#ff980e" />
				<stop offset=".57" stop-color="#ff3647" />
				<stop offset=".74" stop-color="#e31587" />
			</radialGradient>
			<radialGradient id="j" cx="18.9%" cy="-42.5%" r="238.4%">
				<stop offset=".14" stop-color="#fff44f" />
				<stop offset=".48" stop-color="#ff980e" />
				<stop offset=".66" stop-color="#ff3647" />
				<stop offset=".9" stop-color="#e31587" />
			</radialGradient>
			<radialGradient id="k" cx="159.3%" cy="-44.72%" r="313.1%">
				<stop offset=".09" stop-color="#fff44f" />
				<stop offset=".63" stop-color="#ff980e" />
			</radialGradient>
			<linearGradient id="a" x1="87.25%" y1="15.5%" x2="9.4%" y2="93.1%">
				<stop offset=".05" stop-color="#fff44f" />
				<stop offset=".37" stop-color="#ff980e" />
				<stop offset=".53" stop-color="#ff3647" />
				<stop offset=".7" stop-color="#e31587" />
			</linearGradient>
			<linearGradient id="l" x1="80%" y1="14%" x2="18%" y2="84%">
				<stop offset=".17" stop-color="#fff44f" stop-opacity=".8" />
				<stop offset=".6" stop-color="#fff44f" stop-opacity="0" />
			</linearGradient>
		</defs>
		<path d="M478.711 166.353c-10.445-25.124-31.6-52.248-48.212-60.821 13.52 26.505 21.345 53.093 24.335 72.936 0 .039.015.136.047.4C427.706 111.135 381.627 83.823 344 24.355c-1.9-3.007-3.805-6.022-5.661-9.2a73.716 73.716 0 01-2.646-4.972A43.7 43.7 0 01332.1.677a.626.626 0 00-.546-.644.818.818 0 00-.451 0c-.034.012-.084.051-.12.065-.053.021-.12.069-.176.1.027-.036.083-.117.1-.136-60.37 35.356-80.85 100.761-82.732 133.484a120.249 120.249 0 00-66.142 25.488 71.355 71.355 0 00-6.225-4.7 111.338 111.338 0 01-.674-58.732c-24.688 11.241-43.89 29.01-57.85 44.7h-.111c-9.527-12.067-8.855-51.873-8.312-60.184-.114-.515-7.107 3.63-8.023 4.255a175.073 175.073 0 00-23.486 20.12 210.478 210.478 0 00-22.442 26.913c0 .012-.007.026-.011.038 0-.013.007-.026.011-.038a202.838 202.838 0 00-32.247 72.805c-.115.521-.212 1.061-.324 1.586-.452 2.116-2.08 12.7-2.365 15-.022.177-.032.347-.053.524a229.066 229.066 0 00-3.9 33.157c0 .41-.025.816-.025 1.227C16 388.418 123.6 496 256.324 496c118.865 0 217.56-86.288 236.882-199.63.407-3.076.733-6.168 1.092-9.271 4.777-41.21-.53-84.525-15.587-120.746zM201.716 354.447c1.124.537 2.18 1.124 3.334 1.639.048.033.114.07.163.1a126.191 126.191 0 01-3.497-1.739zm55.053-144.93zm198.131-30.59l-.032-.233c.012.085.027.174.04.259z" fill="url(#a)" />
		<path d="M478.711 166.353c-10.445-25.124-31.6-52.248-48.212-60.821 13.52 26.505 21.345 53.093 24.335 72.936 0-.058.011.048.036.226.012.085.027.174.04.259 22.675 61.47 10.322 123.978-7.479 162.175-27.539 59.1-94.215 119.67-198.576 116.716C136.1 454.651 36.766 370.988 18.223 261.41c-3.379-17.28 0-26.054 1.7-40.084-2.071 10.816-2.86 13.94-3.9 33.157 0 .41-.025.816-.025 1.227C16 388.418 123.6 496 256.324 496c118.865 0 217.56-86.288 236.882-199.63.407-3.076.733-6.168 1.092-9.271 4.777-41.21-.53-84.525-15.587-120.746z" fill="url(#b)" />
		<path d="M478.711 166.353c-10.445-25.124-31.6-52.248-48.212-60.821 13.52 26.505 21.345 53.093 24.335 72.936 0-.058.011.048.036.226.012.085.027.174.04.259 22.675 61.47 10.322 123.978-7.479 162.175-27.539 59.1-94.215 119.67-198.576 116.716C136.1 454.651 36.766 370.988 18.223 261.41c-3.379-17.28 0-26.054 1.7-40.084-2.071 10.816-2.86 13.94-3.9 33.157 0 .41-.025.816-.025 1.227C16 388.418 123.6 496 256.324 496c118.865 0 217.56-86.288 236.882-199.63.407-3.076.733-6.168 1.092-9.271 4.777-41.21-.53-84.525-15.587-120.746z" fill="url(#c)" />
		<path d="M361.922 194.6c.524.368 1 .734 1.493 1.1a130.706 130.706 0 00-22.31-29.112C266.4 91.892 321.516 4.626 330.811.194c.027-.036.083-.117.1-.136-60.37 35.356-80.85 100.761-82.732 133.484 2.8-.194 5.592-.429 8.442-.429 45.051 0 84.289 24.77 105.301 61.487z" fill="url(#d)" />
		<path d="M256.772 209.514c-.393 5.978-21.514 26.593-28.9 26.593-68.339 0-79.432 41.335-79.432 41.335 3.027 34.81 27.261 63.475 56.611 78.643 1.339.692 2.694 1.317 4.05 1.935a132.768 132.768 0 007.059 2.886 106.743 106.743 0 0031.271 6.031c119.78 5.618 142.986-143.194 56.545-186.408 22.137-3.85 45.115 5.053 57.947 14.067-21.012-36.714-60.25-61.484-105.3-61.484-2.85 0-5.641.235-8.442.429a120.249 120.249 0 00-66.142 25.488c3.664 3.1 7.8 7.244 16.514 15.828 16.302 16.067 58.13 32.705 58.219 34.657z" fill="url(#e)" />
		<path d="M256.772 209.514c-.393 5.978-21.514 26.593-28.9 26.593-68.339 0-79.432 41.335-79.432 41.335 3.027 34.81 27.261 63.475 56.611 78.643 1.339.692 2.694 1.317 4.05 1.935a132.768 132.768 0 007.059 2.886 106.743 106.743 0 0031.271 6.031c119.78 5.618 142.986-143.194 56.545-186.408 22.137-3.85 45.115 5.053 57.947 14.067-21.012-36.714-60.25-61.484-105.3-61.484-2.85 0-5.641.235-8.442.429a120.249 120.249 0 00-66.142 25.488c3.664 3.1 7.8 7.244 16.514 15.828 16.302 16.067 58.13 32.705 58.219 34.657z" fill="url(#f)" />
		<path d="M170.829 151.036a244.042 244.042 0 014.981 3.3 111.338 111.338 0 01-.674-58.732c-24.688 11.241-43.89 29.01-57.85 44.7 1.155-.033 36.014-.66 53.543 10.732z" fill="url(#g)" />
		<path d="M18.223 261.41C36.766 370.988 136.1 454.651 248.855 457.844c104.361 2.954 171.037-57.62 198.576-116.716 17.8-38.2 30.154-100.7 7.479-162.175l-.008-.026-.032-.233c-.025-.178-.04-.284-.036-.226 0 .039.015.136.047.4 8.524 55.661-19.79 109.584-64.051 146.044l-.133.313c-86.245 70.223-168.774 42.368-185.484 30.966a144.108 144.108 0 01-3.5-1.743c-50.282-24.029-71.054-69.838-66.6-109.124-42.457 0-56.934-35.809-56.934-35.809s38.119-27.179 88.358-3.541c46.53 21.893 90.228 3.543 90.233 3.541-.089-1.952-41.917-18.59-58.223-34.656-8.713-8.584-12.85-12.723-16.514-15.828a71.355 71.355 0 00-6.225-4.7 282.929 282.929 0 00-4.981-3.3c-17.528-11.392-52.388-10.765-53.543-10.735h-.111c-9.527-12.067-8.855-51.873-8.312-60.184-.114-.515-7.107 3.63-8.023 4.255a175.073 175.073 0 00-23.486 20.12 210.478 210.478 0 00-22.442 26.919c0 .012-.007.026-.011.038 0-.013.007-.026.011-.038a202.838 202.838 0 00-32.247 72.805c-.115.521-8.65 37.842-4.44 57.199z" fill="url(#h)" />
		<path d="M341.105 166.587a130.706 130.706 0 0122.31 29.112c1.323.994 2.559 1.985 3.608 2.952 54.482 50.2 25.936 121.2 23.807 126.26 44.261-36.46 72.575-90.383 64.051-146.044C427.706 111.135 381.627 83.823 344 24.355c-1.9-3.007-3.805-6.022-5.661-9.2a73.716 73.716 0 01-2.646-4.972A43.7 43.7 0 01332.1.677a.626.626 0 00-.546-.644.818.818 0 00-.451 0c-.034.012-.084.051-.12.065-.053.021-.12.069-.176.1-9.291 4.428-64.407 91.694 10.298 166.389z" fill="url(#i)" />
		<path d="M367.023 198.651c-1.049-.967-2.285-1.958-3.608-2.952-.489-.368-.969-.734-1.493-1.1-12.832-9.014-35.81-17.917-57.947-14.067 86.441 43.214 63.235 192.026-56.545 186.408a106.743 106.743 0 01-31.271-6.031 134.51 134.51 0 01-7.059-2.886c-1.356-.618-2.711-1.243-4.05-1.935.048.033.114.07.163.1 16.71 11.4 99.239 39.257 185.484-30.966l.133-.313c2.129-5.054 30.675-76.057-23.807-126.258z" fill="url(#j)" />
		<path d="M148.439 277.443s11.093-41.335 79.432-41.335c7.388 0 28.509-20.615 28.9-26.593s-43.7 18.352-90.233-3.541c-50.239-23.638-88.358 3.541-88.358 3.541s14.477 35.809 56.934 35.809c-4.453 39.286 16.319 85.1 66.6 109.124 1.124.537 2.18 1.124 3.334 1.639-29.348-15.169-53.582-43.834-56.609-78.644z" fill="url(#k)" />
		<path d="M478.711 166.353c-10.445-25.124-31.6-52.248-48.212-60.821 13.52 26.505 21.345 53.093 24.335 72.936 0 .039.015.136.047.4C427.706 111.135 381.627 83.823 344 24.355c-1.9-3.007-3.805-6.022-5.661-9.2a73.716 73.716 0 01-2.646-4.972A43.7 43.7 0 01332.1.677a.626.626 0 00-.546-.644.818.818 0 00-.451 0c-.034.012-.084.051-.12.065-.053.021-.12.069-.176.1.027-.036.083-.117.1-.136-60.37 35.356-80.85 100.761-82.732 133.484 2.8-.194 5.592-.429 8.442-.429 45.053 0 84.291 24.77 105.3 61.484-12.832-9.014-35.81-17.917-57.947-14.067 86.441 43.214 63.235 192.026-56.545 186.408a106.743 106.743 0 01-31.271-6.031 134.51 134.51 0 01-7.059-2.886c-1.356-.618-2.711-1.243-4.05-1.935.048.033.114.07.163.1a144.108 144.108 0 01-3.5-1.743c1.124.537 2.18 1.124 3.334 1.639-29.35-15.168-53.584-43.833-56.611-78.643 0 0 11.093-41.335 79.432-41.335 7.388 0 28.509-20.615 28.9-26.593-.089-1.952-41.917-18.59-58.223-34.656-8.713-8.584-12.85-12.723-16.514-15.828a71.355 71.355 0 00-6.225-4.7 111.338 111.338 0 01-.674-58.732c-24.688 11.241-43.89 29.01-57.85 44.7h-.111c-9.527-12.067-8.855-51.873-8.312-60.184-.114-.515-7.107 3.63-8.023 4.255a175.073 175.073 0 00-23.486 20.12 210.478 210.478 0 00-22.435 26.916c0 .012-.007.026-.011.038 0-.013.007-.026.011-.038a202.838 202.838 0 00-32.247 72.805c-.115.521-.212 1.061-.324 1.586-.452 2.116-2.486 12.853-2.77 15.156-.022.177.021-.176 0 0a279.565 279.565 0 00-3.544 33.53c0 .41-.025.816-.025 1.227C16 388.418 123.6 496 256.324 496c118.865 0 217.56-86.288 236.882-199.63.407-3.076.733-6.168 1.092-9.271 4.777-41.21-.53-84.525-15.587-120.746zm-23.841 12.341c.012.085.027.174.04.259l-.008-.026-.032-.233z" fill="url(#l)" />
	</symbol>
	
	<symbol id="termux-icon" viewBox="0 0 512 512" fill="none">
		<rect width="512" height="512" fill="black" />
		<path d="M156.5 142.5H113.5L198.5 255.5V256.5L113.5 369.5H156.5L241.5 256.5V255.5L156.5 142.5Z" fill="white" />
		<path d="M398.5 341.5H270.5V369.5H398.5V341.5Z" fill="white" />
	</symbol>
	
	<symbol id="npm-icon" viewBox="0 0 32 32" fill="none">
		<path d="M0 10V20H9V22H16V20H32V10H0Z" fill="#CB3837" />
		<path d="M5.46205 12H2V18H5.46205V13.6111H7.22344V18H8.98482V12H5.46205ZM10.7462 12V20H14.269V18H17.731V12H10.7462ZM15.9696 16.3889H14.269V13.6111H15.9696V16.3889ZM22.9545 12H19.4924V18H22.9545V13.6111H24.7158V18H26.4772V13.6111H28.2386V18H30V12H22.9545Z" fill="white" />
	</symbol>
	
	
	<symbol id="git-icon" viewBox="0 0 32 32" fill="none">
		<path d="M2.58536 17.4132C1.80488 16.6327 1.80488 15.3673 2.58536 14.5868L14.5868 2.58536C15.3673 1.80488 16.6327 1.80488 17.4132 2.58536L29.4146 14.5868C30.1951 15.3673 30.1951 16.6327 29.4146 17.4132L17.4132 29.4146C16.6327 30.1951 15.3673 30.1951 14.5868 29.4146L2.58536 17.4132Z" fill="#EE513B" />
		<path d="M12.1489 5.06152L10.9336 6.27686L14.0725 9.41577C13.9455 9.68819 13.8746 9.99201 13.8746 10.3124C13.8746 11.222 14.4461 11.9981 15.2496 12.3012V19.9798C14.4461 20.2829 13.8746 21.059 13.8746 21.9686C13.8746 23.1422 14.826 24.0936 15.9996 24.0936C17.1732 24.0936 18.1246 23.1422 18.1246 21.9686C18.1246 21.144 17.6549 20.429 16.9684 20.0768V12.3117L19.9689 15.3122C19.8481 15.5791 19.7809 15.8754 19.7809 16.1874C19.7809 17.361 20.7323 18.3124 21.9059 18.3124C23.0795 18.3124 24.0309 17.361 24.0309 16.1874C24.0309 15.0138 23.0795 14.0624 21.9059 14.0624C21.6778 14.0624 21.4582 14.0983 21.2522 14.1648L18.0297 10.9423C18.0914 10.7433 18.1246 10.5317 18.1246 10.3124C18.1246 9.13878 17.1732 8.18738 15.9996 8.18738C15.7803 8.18738 15.5688 8.22061 15.3697 8.2823L12.1489 5.06152Z" fill="white" />
	</symbol>
	
	<symbol id="notesnook-icon" viewBox="0 0 500 500" xmlns:xlink="http://www.w3.org/1999/xlink">
		<path fill="#000" opacity="1" stroke="none" d="M321.000000,501.000000 C214.000031,501.000000 107.500053,501.000000 1.000057,501.000000 
			C1.000038,334.333405 1.000038,167.666794 1.000019,1.000147 
			C167.666565,1.000098 334.333130,1.000098 500.999756,1.000049 C500.999847,167.666519 500.999847,334.333038 500.999939,500.999786 C441.166656,501.000000 381.333344,501.000000 321.000000,501.000000 M322.261414,238.499863 C322.261414,250.499390 322.896179,262.543854 322.050873,274.483551 C321.428680,283.271820 323.131409,289.214752 332.617981,290.869141 C333.251556,290.979675 333.822357,291.421814 334.436707,291.674805 C343.113068,295.248077 351.791840,298.815369 360.642334,302.454956 C360.793762,301.360352 360.919617,300.875092 360.919617,300.389801 C360.920135,266.891327 361.283936,233.387222 360.777161,199.896301 C360.408600,175.539322 352.271088,153.445786 336.860382,134.595078 C314.622437,107.393135 285.573212,93.497887 250.346939,93.285141 C215.349670,93.073776 180.350128,93.239258 145.351578,93.255325 C144.066025,93.255913 142.780518,93.423897 141.303177,93.527298 C141.303177,132.756409 141.303177,171.698105 141.303177,210.880463 C153.949799,216.148239 166.630539,221.430237 179.803177,226.917130 C179.803177,219.196213 179.876404,212.078827 179.786789,204.963470 C179.635254,192.932236 182.321136,181.661453 187.637360,170.815506 C204.880783,135.636200 250.979263,121.157402 284.960663,140.629639 C309.561707,154.726639 321.894928,176.186127 322.233643,204.501480 C322.365173,215.499466 322.259186,226.500305 322.261414,238.499863 M180.008331,305.148376 C179.936691,291.819366 179.937164,278.489105 179.702026,265.162994 C179.672714,263.501312 178.822815,260.883240 177.630920,260.363007 C165.657516,255.136948 153.533066,250.256943 141.092453,245.131775 C141.092453,262.111725 141.148056,278.594818 141.081131,295.077423 C140.931351,331.962616 154.437485,362.577179 183.587158,385.496338 C208.383118,404.992401 236.938599,412.347687 267.997528,407.487579 C298.238770,402.755402 322.610962,387.514099 340.598389,362.586792 C346.788513,354.008362 351.885132,344.776184 354.790619,334.386749 C342.818939,329.387726 331.211609,324.540833 319.614685,319.698303 C317.425140,324.422546 315.661102,329.104645 313.170197,333.361420 C310.585205,337.779022 307.556183,342.001465 304.273499,345.935608 C283.715118,370.574066 244.945633,377.386353 217.054398,361.468933 C195.473404,349.152771 183.343628,330.577240 180.008331,305.148376 
		z" />
		<path fill="#FDFDFD" opacity="1" stroke="none" d="M322.261414,237.999847 C322.259186,226.500305 322.365173,215.499466 322.233643,204.501480 C321.894928,176.186127 309.561707,154.726639 284.960663,140.629639 C250.979263,121.157402 204.880783,135.636200 187.637360,170.815506 C182.321136,181.661453 179.635254,192.932236 179.786789,204.963470 C179.876404,212.078827 179.803177,219.196213 179.803177,226.917130 C166.630539,221.430237 153.949799,216.148239 141.303177,210.880463 C141.303177,171.698105 141.303177,132.756409 141.303177,93.527298 C142.780518,93.423897 144.066025,93.255913 145.351578,93.255325 C180.350128,93.239258 215.349670,93.073776 250.346939,93.285141 C285.573212,93.497887 314.622437,107.393135 336.860382,134.595078 C352.271088,153.445786 360.408600,175.539322 360.777161,199.896301 C361.283936,233.387222 360.920135,266.891327 360.919617,300.389801 C360.919617,300.875092 360.793762,301.360352 360.642334,302.454956 C351.791840,298.815369 343.113068,295.248077 334.436707,291.674805 C333.822357,291.421814 333.251556,290.979675 332.617981,290.869141 C323.131409,289.214752 321.428680,283.271820 322.050873,274.483551 C322.896179,262.543854 322.261414,250.499390 322.261414,237.999847 
		z" />
		<path fill="#FDFDFD" opacity="1" stroke="none" d="M180.031616,305.609436 C183.343628,330.577240 195.473404,349.152771 217.054398,361.468933 C244.945633,377.386353 283.715118,370.574066 304.273499,345.935608 C307.556183,342.001465 310.585205,337.779022 313.170197,333.361420 C315.661102,329.104645 317.425140,324.422546 319.614685,319.698303 C331.211609,324.540833 342.818939,329.387726 354.790619,334.386749 C351.885132,344.776184 346.788513,354.008362 340.598389,362.586792 C322.610962,387.514099 298.238770,402.755402 267.997528,407.487579 C236.938599,412.347687 208.383118,404.992401 183.587158,385.496338 C154.437485,362.577179 140.931351,331.962616 141.081131,295.077423 C141.148056,278.594818 141.092453,262.111725 141.092453,245.131775 C153.533066,250.256943 165.657516,255.136948 177.630920,260.363007 C178.822815,260.883240 179.672714,263.501312 179.702026,265.162994 C179.937164,278.489105 179.936691,291.819366 180.031616,305.609436 
		z" />
	</symbol>
	
	<symbol id="android-icon" viewBox="0 0 512 512" fill="#000">
		<g id="SVGRepo_bgCarrier" stroke-width="0" />
		<g id="SVGRepo_tracerCarrier" stroke-linecap="round" stroke-linejoin="round" />
		<g id="SVGRepo_iconCarrier">
			<rect width="512" height="512" rx="15%" fill="#ffffff00" />
			<path d="m338.1555 305.70985a14.86683 14.86683 0 1 1 14.8641-14.86963 14.88644 14.88644 0 0 1 -14.8641 14.86963m-164.311 0a14.86683 14.86683 0 1 1 14.864-14.86963 14.883638 14.883638 0 0 1 -14.864 14.86963m169.642-89.54555 29.7085-51.45542a6.1820238 6.1820238 0 1 0 -10.704-6.18821l-30.0839 52.10534c-23.0047-10.49951-48.8417-16.34595-76.4099-16.34595s-53.4024 5.85485-76.4072 16.34595l-30.081-52.10534a6.1811349 6.1811349 0 1 0 -10.7068 6.1798l29.7113 51.46383c-51.0156 27.7475-85.9094 79.39341-91.0135 140.41269h357c-5.1097-61.01928-40.0007-112.66519-91.0135-140.41269" fill="#3ddc84" />
		</g>
	</symbol>
	
	<symbol id="sunny-icon-outline" viewBox="0 0 48 48">
		<path fill="currentColor" d="M24 9.5q-.65 0-1.075-.425Q22.5 8.65 22.5 8V3.5q0-.65.425-1.075Q23.35 2 24 2q.65 0 1.075.425.425.425.425 1.075V8q0 .65-.425 1.075Q24.65 9.5 24 9.5Zm10.25 4.25q-.45-.45-.45-1.05 0-.6.45-1.05l3.15-3.2Q37.85 8 38.475 8t1.075.45Q40 8.9 40 9.5q0 .6-.45 1.05l-3.2 3.2q-.45.45-1.05.45-.6 0-1.05-.45ZM40 25.5q-.65 0-1.075-.425Q38.5 24.65 38.5 24q0-.65.425-1.075Q39.35 22.5 40 22.5h4.5q.65 0 1.075.425Q46 23.35 46 24q0 .65-.425 1.075-.425.425-1.075.425ZM24 46q-.65 0-1.075-.425-.425-.425-.425-1.075V40q0-.65.425-1.075Q23.35 38.5 24 38.5q.65 0 1.075.425.425.425.425 1.075v4.5q0 .65-.425 1.075Q24.65 46 24 46ZM11.65 13.75l-3.2-3.15Q8 10.15 8 9.525t.45-1.075Q8.9 8 9.5 8q.6 0 1.05.45l3.2 3.2q.45.45.45 1.05 0 .6-.45 1.05-.45.4-1.075.4t-1.025-.4Zm25.8 25.8-3.2-3.2q-.45-.45-.45-1.05 0-.6.45-1.05.4-.4 1.025-.4.625 0 1.075.4l3.25 3.15q.45.45.425 1.075Q40 39.1 39.6 39.55q-.45.45-1.075.45t-1.075-.45ZM3.5 25.5q-.65 0-1.075-.425Q2 24.65 2 24q0-.65.425-1.075Q2.85 22.5 3.5 22.5H8q.65 0 1.075.425Q9.5 23.35 9.5 24q0 .65-.425 1.075Q8.65 25.5 8 25.5Zm4.95 14.05Q8 39.1 8 38.5q0-.6.45-1.05l3.2-3.2q.4-.4 1.025-.4.625 0 1.075.4.45.45.45 1.075t-.45 1.075l-3.15 3.15q-.45.45-1.075.45t-1.075-.45ZM24 36q-5 0-8.5-3.5T12 24q0-5 3.5-8.5T24 12q5 0 8.5 3.5T36 24q0 5-3.5 8.5T24 36Zm0-3q3.75 0 6.375-2.625T33 24q0-3.75-2.625-6.375T24 15q-3.75 0-6.375 2.625T15 24q0 3.75 2.625 6.375T24 33Z" />
	</symbol>
	
	<symbol id="sunny-icon-filled" viewBox="0 0 48 48">
		<path fill="currentColor" d="M24 34q-4.15 0-7.075-2.925T14 24q0-4.15 2.925-7.075T24 14q4.15 0 7.075 2.925T34 24q0 4.15-2.925 7.075T24 34ZM3.5 25.5q-.65 0-1.075-.425Q2 24.65 2 24q0-.65.425-1.075Q2.85 22.5 3.5 22.5h5q.65 0 1.075.425Q10 23.35 10 24q0 .65-.425 1.075-.425.425-1.075.425Zm36 0q-.65 0-1.075-.425Q38 24.65 38 24q0-.65.425-1.075.425-.425 1.075-.425h5q.65 0 1.075.425Q46 23.35 46 24q0 .65-.425 1.075-.425.425-1.075.425ZM24 10q-.65 0-1.075-.425Q22.5 9.15 22.5 8.5v-5q0-.65.425-1.075Q23.35 2 24 2q.65 0 1.075.425.425.425.425 1.075v5q0 .65-.425 1.075Q24.65 10 24 10Zm0 36q-.65 0-1.075-.425-.425-.425-.425-1.075v-5q0-.65.425-1.075Q23.35 38 24 38q.65 0 1.075.425.425.425.425 1.075v5q0 .65-.425 1.075Q24.65 46 24 46ZM12 14.1l-2.85-2.8q-.45-.45-.425-1.075.025-.625.425-1.075.45-.45 1.075-.45t1.075.45L14.1 12q.4.45.4 1.05 0 .6-.4 1-.4.45-1.025.45-.625 0-1.075-.4Zm24.7 24.75L33.9 36q-.4-.45-.4-1.075t.45-1.025q.4-.45 1-.45t1.05.45l2.85 2.8q.45.45.425 1.075-.025.625-.425 1.075-.45.45-1.075.45t-1.075-.45ZM33.9 14.1q-.45-.45-.45-1.05 0-.6.45-1.05l2.8-2.85q.45-.45 1.075-.425.625.025 1.075.425.45.45.45 1.075t-.45 1.075L36 14.1q-.4.4-1.025.4-.625 0-1.075-.4ZM9.15 38.85q-.45-.45-.45-1.075t.45-1.075L12 33.9q.45-.45 1.05-.45.6 0 1.05.45.45.45.45 1.05 0 .6-.45 1.05l-2.8 2.85q-.45.45-1.075.425-.625-.025-1.075-.425Z" />
	</symbol>
	
	<symbol id="bedtime-icon-outline" viewBox="0 0 48 48">
		<path fill="currentColor" d="M24 41q2.8 0 5.8-1.15t5.7-3.4q-4.9-1.7-8.45-4.575-3.55-2.875-5.625-6.65-2.075-3.775-2.65-8.25-.575-4.475.475-9.325-5.55 2.05-8.9 6.325Q7 18.25 7 24q0 7.2 4.9 12.1Q16.8 41 24 41Zm0 3q-4.2 0-7.85-1.55Q12.5 40.9 9.8 38.2q-2.7-2.7-4.25-6.35Q4 28.2 4 24q0-7.2 4.725-12.825Q13.45 5.55 20.5 4.3q1.3-.25 1.9.575.6.825.15 2.175-1.35 4.25-.9 8.65.45 4.4 2.5 8.15t5.575 6.475Q33.25 33.05 38 33.9q1.4.25 1.775 1.1.375.85-.475 1.85Q36.45 40 32.4 42q-4.05 2-8.4 2Zm-2.75-19.7Z" />
	</symbol>
	
	<symbol id="bedtime-icon-filled" viewBox="0 0 48 48">
		<path fill="currentColor" d="M39.3 36.85Q36.45 40 32.4 42q-4.05 2-8.4 2-4.2 0-7.85-1.55Q12.5 40.9 9.8 38.2q-2.7-2.7-4.25-6.35Q4 28.2 4 24q0-7.2 4.725-12.825Q13.45 5.55 20.5 4.3q1.3-.25 1.9.575.6.825.15 2.175-1.35 4.25-.9 8.65.45 4.4 2.5 8.15t5.575 6.475Q33.25 33.05 38 33.9q1.4.25 1.775 1.1.375.85-.475 1.85Z" />
	</symbol>
</svg>